<mxfile host="app.diagrams.net" modified="2023-01-26T14:57:09.383Z" agent="5.0 (X11; Linux x86_64) AppleWebKit/537.36 (KHTML, like Gecko) Chrome/109.0.0.0 Safari/537.36" etag="ZmjKZHAPMTqARAcoY5EC" version="20.8.11" type="github">
  <diagram name="Page-1" id="UwzUnQ5jH6zoxPlmjCew">
    <mxGraphModel dx="1360" dy="807" grid="1" gridSize="10" guides="1" tooltips="1" connect="1" arrows="1" fold="1" page="1" pageScale="1" pageWidth="1169" pageHeight="827" background="#FFFFFF" math="0" shadow="0">
      <root>
        <mxCell id="0" />
        <mxCell id="1" parent="0" />
        <mxCell id="uYjZoTfT80EFfSONELpA-1" style="edgeStyle=orthogonalEdgeStyle;rounded=0;orthogonalLoop=1;jettySize=auto;html=1;fontFamily=Courier New;fontSize=12;" edge="1" parent="1" source="uYjZoTfT80EFfSONELpA-2">
          <mxGeometry relative="1" as="geometry">
            <mxPoint x="710" y="227.5" as="targetPoint" />
          </mxGeometry>
        </mxCell>
        <mxCell id="uYjZoTfT80EFfSONELpA-2" value="&lt;font face=&quot;Courier New&quot;&gt;HTTP triggered&lt;br&gt;Azure function&lt;/font&gt;" style="aspect=fixed;html=1;points=[];align=center;image;fontSize=12;image=img/lib/azure2/compute/Function_Apps.svg;" vertex="1" parent="1">
          <mxGeometry x="501" y="197.50000000000003" width="68" height="60" as="geometry" />
        </mxCell>
        <mxCell id="uYjZoTfT80EFfSONELpA-3" style="edgeStyle=orthogonalEdgeStyle;rounded=0;orthogonalLoop=1;jettySize=auto;html=1;fontFamily=Courier New;fontSize=12;" edge="1" parent="1" source="uYjZoTfT80EFfSONELpA-4">
          <mxGeometry relative="1" as="geometry">
            <mxPoint x="930" y="225.9699999999999" as="targetPoint" />
          </mxGeometry>
        </mxCell>
        <mxCell id="uYjZoTfT80EFfSONELpA-4" value="&lt;font face=&quot;Courier New&quot;&gt;Azure blob storage&lt;/font&gt;" style="verticalLabelPosition=bottom;html=1;verticalAlign=top;align=center;strokeColor=none;fillColor=#00BEF2;shape=mxgraph.azure.storage_blob;fontSize=13;" vertex="1" parent="1">
          <mxGeometry x="730" y="203.47000000000003" width="50" height="45" as="geometry" />
        </mxCell>
        <mxCell id="uYjZoTfT80EFfSONELpA-5" style="edgeStyle=orthogonalEdgeStyle;rounded=0;orthogonalLoop=1;jettySize=auto;html=1;fontFamily=Courier New;fontSize=12;" edge="1" parent="1" source="uYjZoTfT80EFfSONELpA-7">
          <mxGeometry relative="1" as="geometry">
            <mxPoint x="965" y="270" as="sourcePoint" />
            <mxPoint x="320" y="280" as="targetPoint" />
            <Array as="points">
              <mxPoint x="890" y="240" />
              <mxPoint x="890" y="360" />
              <mxPoint x="320" y="360" />
            </Array>
          </mxGeometry>
        </mxCell>
        <mxCell id="uYjZoTfT80EFfSONELpA-6" value="5 article_id" style="edgeLabel;html=1;align=center;verticalAlign=middle;resizable=0;points=[];fontSize=12;fontFamily=Courier New;" vertex="1" connectable="0" parent="uYjZoTfT80EFfSONELpA-5">
          <mxGeometry x="0.1382" relative="1" as="geometry">
            <mxPoint x="39" as="offset" />
          </mxGeometry>
        </mxCell>
        <mxCell id="uYjZoTfT80EFfSONELpA-7" value="&lt;font face=&quot;Courier New&quot;&gt;Model&lt;/font&gt;" style="sketch=0;outlineConnect=0;fontColor=#232F3E;gradientColor=none;fillColor=#067F68;strokeColor=none;dashed=0;verticalLabelPosition=bottom;verticalAlign=top;align=center;html=1;fontSize=12;fontStyle=0;aspect=fixed;pointerEvents=1;shape=mxgraph.aws4.sagemaker_model;" vertex="1" parent="1">
          <mxGeometry x="940" y="199.99999999999997" width="50" height="50" as="geometry" />
        </mxCell>
        <mxCell id="uYjZoTfT80EFfSONELpA-8" style="edgeStyle=orthogonalEdgeStyle;rounded=0;orthogonalLoop=1;jettySize=auto;html=1;fontFamily=Courier New;fontSize=12;" edge="1" parent="1" target="uYjZoTfT80EFfSONELpA-2">
          <mxGeometry relative="1" as="geometry">
            <mxPoint x="500" y="227.49500000000012" as="targetPoint" />
            <mxPoint x="352.53" y="227.5999999999999" as="sourcePoint" />
            <Array as="points">
              <mxPoint x="426" y="228" />
              <mxPoint x="500" y="228" />
            </Array>
          </mxGeometry>
        </mxCell>
        <mxCell id="uYjZoTfT80EFfSONELpA-9" value="HTTP request" style="edgeLabel;html=1;align=center;verticalAlign=middle;resizable=0;points=[];fontSize=12;fontFamily=Courier New;" vertex="1" connectable="0" parent="uYjZoTfT80EFfSONELpA-8">
          <mxGeometry x="-0.1647" y="-1" relative="1" as="geometry">
            <mxPoint as="offset" />
          </mxGeometry>
        </mxCell>
        <mxCell id="uYjZoTfT80EFfSONELpA-17" style="edgeStyle=orthogonalEdgeStyle;rounded=0;orthogonalLoop=1;jettySize=auto;html=1;fontFamily=Courier New;fontSize=27;" edge="1" parent="1" source="uYjZoTfT80EFfSONELpA-21">
          <mxGeometry relative="1" as="geometry">
            <mxPoint x="281.81999999999994" y="229.5" as="targetPoint" />
            <mxPoint x="152.47181818181804" y="229.50000000000003" as="sourcePoint" />
          </mxGeometry>
        </mxCell>
        <mxCell id="uYjZoTfT80EFfSONELpA-18" value="&lt;font style=&quot;font-size: 12px;&quot;&gt;user_id&lt;/font&gt;" style="edgeLabel;html=1;align=center;verticalAlign=middle;resizable=0;points=[];fontSize=27;fontFamily=Courier New;horizontal=1;" vertex="1" connectable="0" parent="uYjZoTfT80EFfSONELpA-17">
          <mxGeometry x="-0.2603" y="-2" relative="1" as="geometry">
            <mxPoint x="15" y="-7" as="offset" />
          </mxGeometry>
        </mxCell>
        <mxCell id="uYjZoTfT80EFfSONELpA-21" value="&lt;font face=&quot;Courier New&quot;&gt;User&lt;/font&gt;" style="sketch=0;outlineConnect=0;fontColor=#232F3E;gradientColor=none;fillColor=#232F3D;strokeColor=none;dashed=0;verticalLabelPosition=bottom;verticalAlign=top;align=center;html=1;fontSize=12;fontStyle=0;aspect=fixed;pointerEvents=1;shape=mxgraph.aws4.user;" vertex="1" parent="1">
          <mxGeometry x="112.47" y="210.00000000000003" width="40" height="40" as="geometry" />
        </mxCell>
        <mxCell id="uYjZoTfT80EFfSONELpA-22" value="" style="shape=image;imageAspect=0;aspect=fixed;verticalLabelPosition=bottom;verticalAlign=top;fontSize=29;image=data:image/png,iVBORw0KGgoAAAANSUhEUgAAAl0AAACnCAYAAAArFOl9AAAAAXNSR0IArs4c6QAAAARnQU1BAACxjwv8YQUAAAAJcEhZcwAADsMAAA7DAcdvqGQAAGkISURBVHhe7Z13nCxF1YbZ3ck57N4LSAYJEgSRnJOiiKKiCGIOmEgqGBBFBXMCMaESTJgRMYsIRlBAUBEEQdidHO8FSfrp+d73dPfQO3d27+ad3T1/vL+e0F1dVV1d9VTVqVMbjPzfGjGZTCaTyWQyza8Mukwmk8lkMpkWQAZdJpPJZDKZTAsggy6TyWQymUymBZBBl8lkMplMJtMCyKDLZDKZTCaTaQFk0GUymUwmk8m0ADLoMplMJpPJZFoAGXSZZqb/dKnXOSaTyWQymToy6DJNTy5kDfPzf135fl/nfJPJZDKZTCqDLtO0tQoaJmA96mj43+P/N5lMJpPJtK4MukxTF0HrEUDX2rbkxlqS+1tTcn+F7mnJ8FqDL5PJZDKZJpNBl2ld+aYKh/+Ho6yVVYLj/YCtvzcl9ZOaxD5UlsjLShI5sSixs8uS/nFd8rW2jHjgZVONJpPJZDKNk0GXyZEPtNRO639r9fvwmrZk7wBoAariH6lI+PiSDG1XkKFNx2RoxzEJPAnahceCxC+sSu7e1rphm0wmk8lkMuha0fJDlieCVrstubtbkrm2IQmAVPSEsoQOK0pgH8DWrmMyuDW0BaDrCRCAi/A1uO2YBPcqSvq7db3eC2ude5pMJpPJtEJl0GXSKcHhB9qSL7Ule0tTUt+sS/y9VYm8tCzBQwFaGwOqRhzQGiRk7QU9GXqSqz0dDYbGJH5eVfL3tGQVpyUNukwmk8lk6siga6WKI1qPrJF8G6DljmqlPleT6BtLEjwCoLU5ICo/KoPbQrsDqvaAAFqDhKxdu+T+PxAaxfVlyd3alNX/XfuYfZfJZDKZTCaDrmUtjjRRLvzo6BMN4glED61R2EpdVZfYWWUJ7VeUoQFA1QajClwKUnvjO4/dkNUtF7o2AHRFTi1J9k8Ngy6TyWQymbpk0LXc5IEWhe/DnlE8P9PVw51NSf+4JrEPVyT0opIEdivI0PaAJtc2S/VEaDeIo1o89gItv3zQFT6lJJmbGw7YGXSZTCaTydSRQddykQta4zzF01ZrDUDrrpZkflWXxKerEj2pLOFDixLY1TWK3w4idBG0PButqYCWXz7oCgG60gZdJpPJZDKtI4OuZSJ6iV9F6CJo/ctxXpq5sSmpr9ckfmZFIi8qSfAwZ1RrcNWoDG4I7QRYokE8NRloeaNeE0GZQZfJZDKZTOuVQddyEOBm1UM4Njh92JL0z+qS+FRVIgCgwIEFGYyPyUAckLU14IjQBEDqrD70w5NfPtAa5HcCGqced8Z3P4Txs0GXyWQymUzrlUHXUpJnq/VfQBYN4gVgAw23AFt/bkjqm1UJn1aSoSTAaANAFiBoaCOILh72hQha3XDVSwQpnrs3RFcQWyCsKMQwCW/b4XeGSRG4/DZdJ5ckc9McQ5eXbi88b0FAJw9w9PyCUd3Xm0wmk8nUBzLo6md5EOGBBGGDRvHcZLrpeIpPfqsm0XdVJPT0ogS2BPzQp9YOOHJkaucxCUzVVosjWgQtjoLx3M3wnYCVG5XgUwoSPaUssbeUJfIKQN0+BRnM4H+6lHg8ziWc7eO4jKAh/ZyMdHWlXbcj8rzk39+WfLmlDlyzd+FYb8nwI21dNKALB7z8MplMJpOpj2TQ1Y/yoIEA4YmgxelDgFb6h3WJn1uVyLMdVw+BPQvOtB+nD7eCvCm/9YEWxfMAW4OAs8GtAVGrR9XuK3hQQSIvKEn8bRV1lpr9Q1Nyf25K5lcNSVxSk/gZFQk/H/feA/em09TNR2Vg6L7ZTy96kMXP/rTTS/49LclcV5fE+VWJnVaR6Mu5/yNgkHH8fl1yo4AvQhmv8YdpMplMJlMfyKCrH+VBgwsb9PCe+W1DkpcCdt5aURgK7g3YWQXYoVH8Ni5A0TM8IaobrPwihPlGvjhSpVv6bDcmgX3GJHxIUaKvLkvigqqkrwbI3AmQWdPWuCgQPbxG8oS/21su/CE+J5QkdERRBjcalfAbnenFVTOFLjftuiCAXvIBUtkbGpL6GtJ+NkDzRKQdQKj2ZYRMKIA0h55X0vzJlVvOiKCNdplMJpOpz2TQ1W8ibDwIqKm3JXtbU9Lfb0jiQ1WJvtIxih/aCJDElYdPgDgVCOm0ICGqF2RRftDy++Pif4SWrQsSPrwosfPKkv4eQAv3pZ0YR404padOVT0Q5NGd6hsmgFURz1sRz2/XJfLissQ+UtHvq3nO+qCrG4z4/SGE2UT6/wHY+iVgi24uTnFXXhIyk6MyxClNpIWOW5l2amB4FOBVlPS1dSe+/nBNJpPJZOoDGXQtlggYhBIcFRJoEM7fADvc/zDx5aqEXw3Q2r4ggxsALIKALPrTomH7Xg5wrANXveRNNe6La3jt4xDOABQalcBOBYmeVpLUt2oKeNwSSKFKAH6Ik07xMU5Ud9whtaHy4v5/ayVXaumoHO3NNE3d1/mvJ1y6Yej1hLi1DmimvlNzvOQfANCi7RhAa3AriHBJ+zF/2pk+gufjkZ5DxiR+QaX3PU0mk8lkWmQZdC2UXFBRWOF3HTFaK6sAK2oUf0tDjeJj7wRsHAXY2hrA8QQAxc4QjeIpQoY7LdiBjh7q7JXoGsXTsH4gDWgBwAT2Lkjk5JIkP12VzDUNyXP6sNF2Rq16xbn7t0nEKUGdhuwe4fKlnSKQrWba8ZlTl9m/NyX9o7p6yQ8/C2nfEmnfBHHnIoBdEH+KafNG67rTz9+2Rdr2H5PY+8o6Lal5bDKZTCZTH8mgaz7lhw1CFu2cXFunPKcPb29KCuATf59jpxXavyABQgSnALcBaOwI+acGJ4Mt/seRII5m0age0DI4AtDaEjByKEDrlWWJv6Miqa/U1WlqfqwlI4ATPyDNCagwnTyuk3ZX/G9tW/J3NztG8bog4OCiBPYBbAEuGWddFDCNlZdDXLG5z5hEzwJ01ZAuLz68v/fZZDKZTKZFlEHXfAqQQU/xbPiHH3FGdXL/bEnmNw1JfrYm0VMrEjqhJIH9ABs0ZufKwc1wJGBwlIojVhPBBn/3gITiiNi2gBXX3im4Z0GN26OALTpKzf4eoMWpP04hErT8IOQHpO40TEe9wmH4XBBwP9JeAGjeSH9iNYm/E6D5wqIE9y3IoLcggFOIBE7CIzUZaPmF9BJQ6TcsemZZ8qWWk+9enLzPJpPJZDItogy65lOAm1X/AnBUABuusTmN4sMvd/Y+HEyMyUAGoMWpQ0IGQIsr8SaFDR9sqZsHwganITnSQ5uvnQsSfmlJ4h+vSPqndcnd1ZSRf7V1NaFO6QGCxtlqzReUIO3DD7UlT8etd7QQl4bCX/QNJQk+FWnfFHFPALK4KMCdCl3vgoCJxLxgHuwN6HpLWVcwGnSZTCaTqd9k0DUXcuHFMYiHADf8nqu2JHMD/VoBtE4syeAA4IBG7DF3VIdG4fs50NATJrpF4CKg0BM8gQvAMkAD+6ExCe5XlNj7y5L+OUDr7jaAh3FBPCD1Xs84coRrriHETbt+ZvppEA+wy9Mo/s9NSV5Rk+jpJQnsDMBk2gOATI7qEbD2cdPTK63TkQddHOkidNlIl8lkMpn6UAZdM5EHGl2wQR9WwwCt3I0NSX6xKpE3l3T6TKcMN4dco3i1uXJhYVLgcke1Ar7pNk7DDcXwG8ILPaeokEH/VJnfNiU3Cti6H3HwfGp1x3su5Et7Z0GAa6emDkxvdb3kc0HAM0oy9Hikn6NwnDakutM+2ajeVIVwDLpMJpPJ1O8y6JqO3AacU3SePZSu+iu3JHuru/rwLRWJPB2wtWfBgSUAB43Cdb9CTh1OBTb4nwdanD7cbNTxFA9gCR0O0HpZSRLvr0r6x3XJ/qUp+Qpg60HEhfHz4tYd99nIhSz9jLA76Sdo0VEq/Yn9qC7x85D240oSAmjq9kMcjaOdGRcEMF3+9HeneTYy6DKZTCbTEpBB11Tlg5lVNAzn6sM7mpK6ui4JOvB8A2Dj2QUHNFZDtFUiaBEwOIVG4OgFDJ54ngclHBHidj4cHQOwBPcvSOSoksTeWJHkJTU1xM/f11JbLSduaztxGwdIcyT1peWFz7RzQcDdLfWSn/pcTeInlyV8bFECHNXrXhBAL/nuKF3PdM+FDLpMJpPJtARk0DUFcRqNU3Y6dVcBcPy5KelvADbeVZbQ8UU09gUZzAKy6HiUozqELICG+sta34gWIYvi1CNHtXgEuAUAL6Edis7+hxdWJEufWv9s6SpAx1O8a0PmQZanrrjPSF3h5PF9mAsCqkj731o6whb/QFXCryxKcDeAVgJpne6CgLmUQZfJZDKZloAMurrlgxeFGo4icWua0ZZu9py8qCqRV5UksClAi4bhKYigtDdAg6M6BKheYNBLBJN9HEgbzCGcIYDLCGDrsILEzy3r3ocErZEHEA81igf4IE7jVh/64z5bMTxOGeKzjm5xtSO/19qSuR5pv5Rb8pQl8CSkPYz4xiEuCADsdDzFLxRo+WXQZTKZTKYlIIMuTx7EKGxA9KtVBGj9viEJGsW/vqTb0gQ4bcYGnqM6FIHLG7Faz6jWOE/x/L71mAzEHMP40JFF3fom9aWqAg6dl3pG8Tqy1SvOs5WXZjd8hUwuCMA98wCt7M1NSV9ek+g7KhLaryhDAE2d8mR6kO5xnuIXA7Y8GXSZTCaTaQnIoMuVsxIPwLG2Lbk7ABvfq0sMsBF+uuPAM0Cw4PQfnY8StvygNRlw8BwXtHTqcfWoDA4DtHYYk+DTihJ5XVkS765K+qq65P7qGcW7U4hdcZwzuaA1bkEA4Y5G8X9D2jl9+B6A5jGuUfzezgpEXRBAX2Be2r3090r3QgrxMOgymUwmU7/LoMtV/qG2ZO9qSerbAI6zAFvPKUpgL8AGt9Ph6kHChgdQk02jeUDCcwgDHBHazoUVXBvcpyDho4oSPb0iictqkrm5KcO6JQ/iQUDwgZAHR73iOyshbIUSghYh8+6WpK913FzETisj7SUJPNl1YLoR0r4dIJHpYtrn2yh+JjLoMplMJtMSkEEXGuX8mrZk/tSQ2PsrEjy6qCsHdUSKqwi5l+H6QItyYYt7Jeq0GyCAG017BvLB/QoSPbkscYBN5td1yY221IHpqv85nuIVstz4zCsoALR01SOnD//S1BG2xAerEn5xSYb2B2jRtiwJbYH4E7CmsiBgsWXQZTKZTKYloJULXWyMaZT+AIDrd3UJva4oA4SNLdF4E7JoGM4Rq16NfC8RUNDoD+6EMABsAwEcQ2MSemZRYudXJA3QGi7QxQMN4h2jeLWhYlzm01M8YY73+e9anbLk9GX2hqYkvgTQOgmgtRnizAUB3JKHLi6Ybs8ovlc6+1EGXSaTyWRaAlqZ0IWG2FsBmL2+IdFTyzKw4WMNuGo9o1odo3jCFqcQCWwxfN6hoG4k4u8pS+qKuu65mC+31eWCwlV3XOZCBAufuPKQI2i6z+IjbcnVWpK5mdsRVSRyakmChxVlkAbxnPLkaB7FETmmzUt7P49sdcugy2QymUxLQCsWurhKL19oSeK8qgQ4HUgAce2wejbsFP8jZAG2OHU4uMmoDG08pteHji7q9CE3dU5f3ZDcXS3JtwFbgJ6ecZgLeaDFz50RLQj3HAZ4ZG9qSPIbNYmeWZHwUYCt3QsaV0KWjmpxQQDT5E0fLiXQ8sugy2QymUxLQCt3ehFwkr6uIeFjS+rYVDdf7tWge6KneYLW5o74W+jggkSeX5LYWRVJfqcumT81JY8Gn6sPFX488X5+QJpDKVwgXNqH0c1D7vaWZH5Rl8QH6E+M+x8WJQDYGnoc4kxP8VvjSNACoKzXTm2pyKDLZDKZTEtAKxe6/r1GEpdWJXigYzyuU4XrA5CdxiSwdUGCuxQlclJZkhdXJXtDw5k+BPRouN5okwdZ89XoE7QeAXTdD9gqALT+0JTU5XWJv6sioRcBtOjeIQltiLQx7t5U6HIBLb8Mukwmk8m0BLSyoMttgGnzxO10Yh8vy9C+aKw3HnU2p+7VoFOAlMDBBQm/vCiJzwG0uPfhaEtGHgT0eJ7i53NEyw3T8xKvRvG4d/belmSvrUviUxUJn1hUH2KDNODPQwDEQRrEc0SLI1u90rVcZNBlMplMpiWglQld/LwW0PVRB7pom6XuEbobc44IUTuPSeQlJUl/py7DtTWyIWHLM4p3gWicvPvNRN3hALQ6nuIfbkuOo1o3cEuemkReU5Lg9oCtjRDHbdw4017riW68CVvLbVSrlwy6TCaTybQEtHKha80UoItyoSt0VFHi761I5rqGDP+jJcPttuPzil7sVc5IlLcqcsbS0SzKCXPkwbbkuR3RTQ1Jfbsm0deWJXwEYIue4hnnbRF/Ahe95ROyPK0E2PJk0GUymUymJaAVD10BF7rU3qlXg05x5GiPMQkeXpDIC13D+S/XJPNrd5Viva3TlcMPAcT+vUZdNXQa/clEqMLRO5d+tHQ7ngcAWo22ZLklzw/rkvhYVSKvLEvoaQAtTiFuCG2KOO/oxpv2WsvRVmuqMugymUwm0xLQyoauj7jQRYCZDLooTtvRU30G524+JoFDxwBCJR39Sl5Sk9QP6urzKw8IG64CvghiTWgN7seNqx/oEn9bC7Xbsorn4fzcWEu9xGd+1pDkZTXdADt8bNFZOZmC6AuMXu4JWVDfe4pfKBl0mUwmk2kJyKDLha4Jpxc9EW54Dl1LAHYGtxyVgRQ0CIVHJbBdQcLPK0rsHIDYFwBiX6vqdGD6J3V1TZH+TdMnfod+Cf0Q53y7KsmvViV+QUUiJ5cksHdRBqKIE8IeHIHouNQziido9YrfSpZBl6mfxTLoqdf/JpNpxciga6rQRRG8XA3iuxqs09mo9z/tq3STaIh+sTYZk8BmBQnuBO1TXFe7FfR/3VSb59MrPq/3wmPYK80ofibqV+jy7t3PjS3j5o9fP8e1n+XlY3f+0dRAbTTdo2tS0FGva0wm07KVQdd0oMsvD4Qob5qPbhq2h7ZzRfsr+sviZ/7XpSGCwjb4TFhzpVvzMHyG6YGWwdbk6kfoYmPrqVdj2ydy3JA8FlfGs+P+xLR+edDk5qMefXlIO0+aENB8YKQFPeL8znM0v7lgxls044XnhW0ymZadDLqmatM1FRGSaG/FaUBqTwjh0vaqlxSseF+e54nfDbKmp36CLja4aGjzYy3J/bkpuVsgHPPV1vxuCTUT/XuN5NdyFwPE8VZXd7ckzx0Vep1vWleEJYpbbwGucvSdd1NT0tfVJfWzuiS/W5PEZTVJXgThmLoS+nldMr+pa37nS7gOz6ADYyaTaVnLoAvQNQTomtQ56mzljVZNpF7XmKaufoEu3GsVHeXW25L+Vl3iZ5QldmZZom8uS/qndV3lqqMhCw2C3eL9CYf/akvmlobEz6loXONnViT52ZrkKq3x5/qvNT0mQKsCdrUt2ZubkvounvnHqhI9vSyhlxUleFxBAkeNSeAQaH/3+MwxCb6gIOFXFSX21rIkP1OV9JV1vT5fAYBxZwvL8/kV8ldXils+L7gszw26Fga6TPOrfoAu3ocOc/+3VnKjLYm9oSJDEcRreFQ2CNwnsdNK2rCqT7fFrnh4f0BXfqytG7QP5EdlIDEqg7FRCR+OeN4D6PqPG8/Fjmu/Cfmh04L4PNxeI9lbmhL/YkXCLy2pTedACPmYhbbAs98Cx82hraDtoG34u6vN8H8W+R4YlSGcG35RSeKXVCVzK8rIg+Pv1/lsmr2YnxzhdWUQsEBCPjOvvXxfyeXaoGumNl2m/lGfQRdhJv7uqgR2LjhTyE8ck+BBBR1FYrlTG6/FqnR4X45yPdiW9DUNCT2z6CwKcfMx8uqy5P9J6HLPXax49pu8vODzvb8tmT82JP6RioQOdRfCcIUxzQa2BHgNAbSDqFOC+A1wFdi7IIG96MwY5+ZxDv4b4P9hABdtOjnaDWAL4NzQ/kVJnF+R7J8a6vuP9zMbu7kTgXk18tRTx97Syvn8iXmLzuYqX76Ps2NcYTLoMuha+upH6HpPFbCFRpbliu4+0KBGATQ62sX9Oherkud90dDkAFbxj1adVbN7Iv9c+0LueGDQ1UNsINhLR94kLqpK+ISSBPZ0nq+OWo0AoLYHXB9ZkPArShJ9Z0US769K8jM1SX61Lsmv1CX1ZRzPr+nv9MEXeVVJQs8qArwKMhhHHZRGGIC34K4I4/iSJC6uSfbupgzjvlpnmWYs3S2Ez6/ckuwtDUn/vi6Z3zck9w/kL+HWwGv+BODKNdFRuQ35/lvk+x/qkkO55m4rKxG8DLoMupa++gy6hkcBXecAunZCo8xRDMSLrkSChxcl8fmqOsftGcZCiI3Pw2vUxix8YkkGV6Gh5+IP5GMAcY2+xqCrW2ywObpFYI6/rSLBpxVlcMcxGdgM9cY2yLeDAEmAp9gby5K4pIaGpSH5u1syXHQcJXN3CWqYxwpUaEnurqael/xaXWKnVyR8dFEhjuENbohwtxqT0FNQXj7B8oJrV2DjNJdS6Hp0jYJW7H1lCZ1YVKUur+mil76wtVyG4pTiKnQyM39vSPT8sgRfiHfl1cj3K5DvtZUJuwZdBl1LX/0MXYif2gu6Pt3CLytJ9u/o5XnxWsgKB/eioX8OMBB7X0WBUKfF3PgZdK0rBa616KWzsX5zWYYehzwjGLk+9AJ7FCT6jrKkf1ST3D1NnbZlnq1G774zfdUlnWZxIYogQBvA9C8AX++tSOgAwNc+gK9tAek7FiR+SkU351+JIwJzJjwPhdZH0Nn4fl1CxxRkg9h9MgDF31OR3J2ErrXO+9vretPMxHxHnm6IvM3ciHwHcNG+dfBxoxI/H/mOetKga7nLfbgTQhdHJbobdFP/q8+hi/HjTgYDm49KYPeCpL5bQ+Psu3YhBRjIXNuQ8LElNfIf2g95x5Eug67xQrp1dATPNHM9eumvL8sGUWdUcJDPc1MA9IElSXFVKnrsq3EeAaszIsWy4JdXPvzfcZ6ezzKDa/MtwB2fDcA8sGtB93jNA8gW1QZwOch9liMc4f1ZXcKvLOqiBtrRxT9elezdLnRZHs+t3DJP6Mregnx/cVF3cQnsW5DkF6qSLxp0LX+5D7cndLHhIXQZeC099Tt0oUwR6p1RpYJECDb3oqLn+QtZ6eBebNhj51QksH/ByTPachEiDLrGC+km7GRuaOgeqzSQZx0xmEOjsSeA6J3oqf++Kav+hfpkrvIK13PqOfeXpk7/Zv/adMpIr3Nnq9nGdSmJ+epBF6fVjwd0cRFDEtD1vqr6plvQka4Vkvd8L9hp4Yhv5k91CRG6Isj3HQqS+JxB18qQ+3B7QZdOsfi39DEtHfU5dAUINp52xPcdC5L+QV2G6aF8ISodL/xH0ehc35DQ09HocPcDdjQgb/pzUujyf/d+m28txj094Vnm72lJ7LWoIwjN2yCPNhuV4GEFiZ9fVVcRIwCkTjmbSz3clmHUTzpV2ev/6ao7HyGtAyFtGP3/+a+bjfxhTjXc7mu61eua9cl/7UMo/z8BdB2H8j+IOj8C6DoX0PUPlHe8h5zqHXc/77rZyA3Hn8/M+77J9+7zJ1KvaycTr8E7NPxo25leJHS9CNBF2N0O0PVZQFcB+Y5zCWazvt8SkkEXoWsTx09XYE+3gWTP30a8lo76EbreDegCXHFrqMBBYxJ8RkECh+D7dojnJojn28uS/SsqHV7TK7y5FuJHQ24Cgxpsb4Qyj3wLoyIMHoV4cRQOcR0HXe51eiQcemHxs//7Qmgh78e8qre1YQjSvorAhXIW2A2NxacrapPHxQjeuZ08mivNU/7ynfDkf66d3+byntMNi/HwxaVbM46be536VmOng9OLLwB0DaDxDwK6zkPjf7czheuB6JzKlybvu5f3436fK/nzyf95Ivnit454/VTCWI82lLWSvRWdvZe40LUt3qOLqjLsjnTNS773sQy69keDvTEKAhrt8HOLEjqaPnXcRpwA1t3Am/pPfQtdiNcOgJsjC+qVXh1oskzRJ9N+BUl9xx3tmk+bHa/MP9jWLYlCxxR1VIvTZaHDipL8XFVtXHQfUMQr4ncZ4V1PcfRlLcJZA92Pzw/N0SjMBGLv19m30Lsn5IHOfInpZCNAP1y/bUjwqcgXjnIBlOlni6CseeNt2ePl0VzLy/Ne/81Aw/9GPj6AYxPPrIrP5baCBg34+Xmk1pZV+E9H1ro7ATOJB58dp1353KgHofV0LrQ8tZ24MI4jFffI73hHNLzpxoX3RJoYh1Uouwwn9f2ahJ8P6OI0VxTQ9e6K5P/SlNVatp1zVfyOe/YMd6pCfDvpAsQPI025Qkvy/0C+c5SH6eOqVpbt9eTPlASo5C4TGn++N/jM38ad489Dxo/P3I2fl++M52zyXd9dff4IA9oQ6ctcT0N6d3qRI10XArr+jjxYy/hCzG+vfnkImu6zXkIy6DoUlepqKDMmiQ9VJP6JioS4JJx+d9CI24jXElC/QtfOBbXj4mq0xIU1iX2yIsFjC+qzi57Lo28rS/a2Jhr6eTTidcPlHn+JS6oyOIy8WgUQPBx59UHc/3cAsZcDLgCI9DM1Drq8OHGrm7ubkvllQzK0NbquIbk7fCsw51IIUw3YURnn/4Z7/qguGe5V+LuGs7R/Pu7pyQ2bhtXRc8symHPL1dbIl6eWJPc33P/f7rOaz3jMRv64/QdlEQ0Yp3GYf8krahL/UkWiF5U1fdGPliV+UUWSX61K+ns1nTLlogDCLetItYOablr57FC35m5uSPZqlJWfOXtM8jeunPXC64TPdwbPWu3YflST5FdQB1/ymBJfqSooZW9E3AguXtx4r4nihd915KoNsPxLQ+24MtdAiEv8o3gHn4n3cjPU7+h4RE8uq9uILMp2luXsF255w/nZPzs2dRrPXvfplnuunk8AYj7c1pL0j+uSvLyqOxdEP4F8f3dZYp9C3l9WleS3ce9fNdS9yAghj2ni9W4+9bxPt7z0In9yf2pKlunFe6PPk6Dtdep84XEqlXuFZv/ckhTOTXwN8bsUeX5xRWJQ4ssVSV9VkxzznSCGjsaU8h3PON9CecO9md/ZX6Cu+HVDEhdXnXY1iXzfBfn+1rKkv4O087mgnGi+Q3wG+duR7+zkMd697rPEZdB1BBrATSFUsAkUuuxfUTldVpPgUwoywAJC6CJ8eYb2vRp90+KqT6ErsAsA64mI18ZjkvxCXdK/rCN+Jbe3NyahZxTR4NW0R8pKc87jykqQFTgaqiwaXU4lEgIHU6MSOa4kaVRwBInQsYAuTi+iMvRDl9qdIBwdJUPlGwZ4BLcuSOiJBYm/uYLKGOf57jXu3jMVw0Fe0CM79yYM0EUDFHsX3k00zJqeXtfNVnx2gN88etupq+oSPBjPbnfce3hUQk8tSuLr9cdsfnpdv9hivCCWI7qkYIOauRGN3UVViZyE53ZIUQLbIj0boq6jbzZ6xh+BVjm/BTbHcz26KNE3lyT59ark7mTDhzARlj/8de7rF//H88nd1ZLY2WUJblvA8ytI7EyUlXtaalDNUTeFCuQ3G/P0tXgn3lOW0HMRP3ZSEBftBK8e1eMQ4/b4MR11jLyp5Ph3uhfvt5vWnnFC2LxX/q6mxD9QUee1wX0LEvR2BUB9ofa7tGPE9+DuEMo0ndIGnwRtBe1R1AUn3KRe24vJ5OUN0wc4yf0TAPmDmkTfWZLQ85GuJ+CebroGmOfMe+Y700d/bPTz9oqixD8F+GXnokFQQlhThQ633iFkxdCR896Z6HkVyf29qe5JaFul+YXPdBDLd1/j9+yiBLd34jeg+e4eme/4nWU/+iaAKdLDUTodkevVSXTzYLWs1bITfWNZpxGDB0K7QcjjAOvqndx839P93ct3fA7h+QS3Qd1yblXdtMzrDMAiyqAL0DXIbTyygK7P4yVDb5ovNXs/kRNKjl+ePCoA9HbVrcSeEF/a7obftHjqV+iiR3pCF8pQkt7FURkRsjiNpx7gUeFGTytL9m9o4ObDSz3DQ8XFkQ7uscg9/rzpzdjZqJDREObQq1ToYiPUDV1eGGwgi3hfzsD7wqlJvA+cmkz/GiAy11NtbCDub3c6PnQSykZTDW/xXDujAL2unY0YJhoTBQY0VgQS5hXTG3sH8uofKFPeSE2v6xdTjJMXL3caOXFeVUKHl3QLIj5XwiP31uSIvo7ybI4j94dE3TeAuk8Ny9HxpG1r8NCCRE4soRNalSynwrgJN/Pdu5f/3n5pHgI67mhKBPA2xD0mQ8g/bi31DwAzyzifL+peTt/G31uR4AEoe4AqzixwZahCl8YNnzfCkZ76uS/oExC//RG3gwBDZ5Yl86uGjDwAkPDi5RehiwCNss0p4Q2GcD06PoMZHFmfs4PBDjSFd2GIo7/oCKmiEM5nRylySnn90OXlB45078GRK7oXCQHaA/sgbDq65X6c6Ohouni/7XFke8L08XlwJ4IdkDYAX/goB/bopkTBwxf+uPv65YJQBh2jKOLM57zBADpWb+PoLKCLdRKvB3hl/oDODN790H6AQfqbY7lI40gY5M4KiOMA4xXG78gvxmsIUBjcH/B1VhmQ3NDn1ykPnhg+4kGjed4z8nJ0LpmXbFsRnyGEqWExz1mHoNOpe5T68n0IecHtsaJnANJ5j/moE/tABl2H4+HzRSR0fRrQVXAKeg69eB2Ofh0KKGhfDezZWLKiYgPPxpTwRRCj+D+/z3Y0jNczLIY527BWivoZuhi/LVG2vogeehGQczMqJLogYEODCpl7Hya/XutMm/QMezZ6dI36fuJoh44eoMENHwNg+k5d34HcXwFd6I33gi693ntnEL/0j+oSOqToTE+iVxr7ACpHTkfNVR4zHIBNFo02e8r04q+e2Z9XlMyv0ciy8ffO6752tmIjgrxiGulSYGAj5NUmyKsXIK+uRF7Rr1qvBn6x5eUF4p6vtjWusVPLzgIANqSAFl3McWBB7fm4t2bs7RV1ecHRw+hbKloetY5DnaONLssJ6rrg0wtoxCuSvtoZfVlv+WRckEccXYmcCejaDveO+qALYMAROK7cjZ4MINwRceT+lIhfEBBP0IuejvidhbgBdNkhYcc3dDjeI8aN4LQpyt7udLtSUqN43cKnuzzgO0d18vcBggDv9EkXeRnCOg5hAWoIb4MAAO4qEDyi6Pz/fIjH57lHQAPdGkxlpItT4d5uBaHnOKPG7JgMrUa+74F8PxJpe1lJt36KqwlLVYGTOxgwzcFDkfcEEYIZ3619kT6cn/pGTXL3AnrX17Hphi5AjELX2wFdAE8FUMQxfV1dIigbQ9sj35OIG+LJXQ8iL0S+n+yWC+Q9n0EYeRVkvqMtGsB7wN0XWJdFXo14oYxxl4R14sF85/TivYD+T1bx7iAfkY7I8SUJI1+YF2w/2XYGn458f66b356Ox31x5DPLM/ypjvQtMRl0HYbCzpeZ0PUpjnQ5D1vn5VHYaXCauqqmw7ZhFFCdMkKPRBtT2sHw5WWDz94LXxyCF6HJL/42kbrPI8x5YbJHxvuYJhfyrZ+hi9MjiS8ArFyj5eQ3a9q715WMgBdWhLkxVK5eXOcizghDHW5WW5L4OOKyH+LCxgANcfxcwNKdyCNADO1WghNBl5cmNzz25KMvRKXNuKOhDKHByt7kemF3zxkXh+nKvV/qSjSU3IibvV80XPELEV8aHvOdnO09eglhal4125L4KPKK/rjQ4eEIRfycio5+8bnOy71nK8aJU1r3ADC+VHNGLTmisonzjDitE35tSeJfqEqKNla3AKBwLvMzjw4mR/A4Dcnpo/gnAQ3PQh3H0TGmn+CQQZl4KRpagBLzR+vFifKBv/uhaxtARATv5Eko33c5Ps3SP23o9lM6wgSo5gbf0fPKkqJ9D/dCBHCz/HFv0NxtTcn+piHJr1QlcgogYFfEi3Xs1ogXrg+/FDD+B6SHCzu8+/vioXaBTB/Czf4RYeGY+AzSeAwaf45Aod4n3KevqksOeUCfbJk/NPWYRbhZvCNqFO5Poyfcg7/rbgW/a2g4AY7qcOoWdRHBKXQIQOuCiqR+WNc8Zpq4mEGN3ctIH9KqtnaAq+gZZe3Q6OIbju6OoEP2lIIkL3b9iPE9nCjf+Z8HXW8AdAG4NtiA0IV850jXWnS8kI+cwlR/c4gnYSv2fsTt+zVnD0qcp+WC+Y7PPD95GfL99RzddsvD45BngCY+P+Z7z4UtfI/WIgyUAY7W8Tx2NDllTXMKHfVCPRR9J/L9JyiPf3TO0XyncI3m06NuWesOfxnIoKsLulgR+c9lZUv7AS6357C9Tju+wekFBFCAhxK4lsP2HCLFy6KjU5yC5CbHFD+7/pB6yjsXwKAONDmaxiF1hrk1fieEdUOGabz6GbpQHjrQVWnLKjaQqJDYYATw3Fn5c1QifbUz2qXhzDbOXhiICytUbp48kEV5QvkKHlFQw9mR+9ErJXTd2pLgC1DZs5z1gi43LnxnaNNEg9vgIWi0UKnTLih1aVXyhEnvvl4cpiPvOjaUtZbEUCEH9kN80LgGn4y8QcOkPevJGvzZiGGih85RAU4NKbBwpDmJ9F2CXj1Xd/UjdDE+yBNO/SYvqkmAU1abO40a66bwAUU1ntfREpYtTteo+PkxcdqPoyHM4+ytTYlfgAbyqSgTKYSFziCnoMLPLqlBemfUpZfc+Ch0nQGw2gplLox3EmWKbjYIGRzx4FQTO69RgIbaMAFEVuNanX4cFz/UvRTfmfvQefgSyh43GWcdibLKhQ7qegXhrjPa6sZFp4S9cPE7t1uK0Dkqy+8A3svzqjIC2KBbA++eHfGZ+8PsFuJFYGCnaQPCBDvOSBtttOIfp30w4gXQZN468XDio7ZalHe//0PeV1pq88kRuaHN8X6xTkObEkRnSR2J0n6S13Snk+qGLqRNoeusEsAV+YtnGnl1UQY4jYm6iCOImWvxLNVPoJdehNERygO0CmWGgw7JL9fUllOBdwuEgXaO08dc2KJQ2vVe8rum0Q13I7kfnTufy4jHAyY/j3xHuX3smT8mXrtcgYsy6JoMujx531nhoGdDg0ICWPp7dfV7FHlHSUIo1MEjHRBjRbMBh3ghFrJe0jlz97OeR2iLOQ10CD2S8FvQKB+Ngs4XmSNehLlu2DA5WgLQlfqiA106igrgIbwTKHSVLKArchZgB/Gei9Eu7YGz4nuwrbZcwSPRyKCMD42Mae9We878/yGuXmquH7pc0TaEBu6RF6FiDyHPN0VjfEpRMn9C4wIgm3QUZDK51zAMXVp+qBNfes3nKicaXM8o3KnISxsqe9oJcXqDNkRDOyJtJxSclWXIxxmnbb6EuHAKjfY1HOEKHoU82xbxRl3BRQC68ADArW4P3DR21CMsSsEadZwauBNOTgU4DaNc0BYHoMPVZ+nfTQJeDAf51IEuAiDKSfTVgKtr6hL7RMXpZBwGkEC51NFWNOxaH68nbpS+N1+v6XQdp8rVqe9qdCIuxbs1kesV73p+xr3GOUdFPe13jprn+9t9fS/xHHZobiLM4F1wbSW58IpuYbgQg+/6ar4T3vkThev9B9F2Lns74PLzAOhn4J1kJz47ivfBGfHqlMPuMHpC130SeVdZUujMJT5akQFu+YW6MoH2iiNZvJfWkRPEzauHViFsuhPhaGBoH8SJ7dtOENKc/E7NMfrv9W7wO+P17/U4R8W144CZn7vDWmYy6OqGLk4v+s5dRywkPHJJKwojN+3M/r2lPR6+bOxxJj5YVWNcLg2OojfH+XL2oDvCixHDMcZ59DdD51a0MYx/pCqpy5zhXg5Hh09BxbUn4kagMOiaWEsBui5GBcXeKnp+7B06vX408JxiBOwEnlTQJdMdI9WZxtsr4ziqQfPzUYaYN4AqjhKwN91ZGTRV6PLCZtlvoFG4AGnbC8CIdA1tg8oXjT6X82u8mQfe+dMQ48v3KfaxigQOKKhdEVc+0Y1AZ59Kf1zmSgwTcWbDkPoxGnROgdDwGnAQPRe9eYJBdz70gbQOgnR05MUEHLwDfBd2KThb29zcVI/5466bLB3+35Ef3upHjuLQ9oe2gHSmS/uf3B0oHxw5676On1EGFLpoSM/pyc1wzctLWh8Gj0FH8hAABBpc3WQaYXTe0+6w/L95v6PMcrN2rvILHIy0boLnhGfFqb3MrQDMXu+Ne71TZ3dBV7dHepbd7ut7CefkSiirb0BZ3RXvAeFoU6QTwMXwc3RtgXPG1UGThev7jyOSnF7jlCPzi+8kXZZwlWH6t0ijB7z+8BjvDnShThlAJz44KpHXFCX6wZKETkA4bN8AXHk+O/++rxPES0HI/Y/gxXcz8Ql04A5G3nFqlu5lANZ09aHlpet6vZbCfxNDl1NnrANd/nCWoQy6pgpd/O5dz5e7S3wZ1IagBnEk7L6WZO9p6hAzjSxZgfmVpdBTYqHlakk6KmSFonYT9ItUbiuwdaALFV5P4DAtIehyYEcB4wGcA8gOHIRK27WVYMPExmhcJTQDsXzT0aBOx+yH8FFJ0oiVLhhYNtX1wQygS98bpDF9HToEr0blvgrxTo1quOrTiO/CdOPunY+GgEveOYqhIys7Ii6vAvTc65s6mm7Y09AqTp1ejvx6GvKLU/uoD+Kfraj/pM6IQNc1iynmCad36HSXnvJ1tAVlLfpGlKE/4FlwhIvnMt7Tibt3Lp8lOpac/qOxN4FLOwiAKIVsTinznO5r8RuhK/omQBdd7tD27+iiLhghqHODaUKb1pfeNVOJH87Rcg2x/uQUma40pEuP5xbVlYTaFnbHieK1mp4e0HWeB11rnfe3+9oe4ohb8nuAor0QDm248N4Q1unDThcc4F7TShvlO5fvZw75m/iCCzmc7t69INGz8Gzpxb07nvyu0IV8IXSx07ApOi1HFiT4VOhgXPt6lOW/oyz7R7j8YfSSFycKnUW+41FAOHdooP1ycL8xne2ZsKOI7wTZdaCLHul90LXOdctcBl1cvehB16fdguA7d0Lxf5/0pWZDpsIL7Bdfwh7i71zRw2kb+tbRF5/XI/z8fYAurjTZA3FDxWXQNYmWEnS5lTunhmg0Gn4JKkn6xUElFjgCjccPUYkB3rV8zDDu2ltGBUsP0LrqCw1l6HA0Cte4U0NeuNMd6eJnxJsdBBrnq6PVLdDoHV3QlVZ0V9Cz0ZtMCFOfFfIm+ZWaBOjDCNBDdxGERq5Y1Pd1PuSmTd/H+/HMAFmBp+L+nIrJAS4uqzp2eL5zF11enGmU/gM0/PsCuDYGVKOchQE3nPLygGvG8M7rILpj4DSUTukBbHSVN+pKruik3zcFJ//z5nX4zhHW6Bsfgy59B1C+uBJRHcy6z3Ta8XPDZ8eW0/XqzgfvPRc+JD4CqKjivadNUne4+K7xnA10uWEyzZyeD78S6aPRO6dLATXJr6GscgS56/xpy7sORy6uib4KbdROeMbbAnLQcWKHR1dsMj3eud3QFULaaC/MhV4AJK4KzN7edKYK/feYqng+8x1tZuJSvKMAOTXITyHfP4Y2E/FkO9adf9oxwG9s3wy6HpNBl99lBIe9URA6FcJ0CoN3PsXCR031evd8NUrENXwx2HCzN2fQNQUtIegaRuWktiOAF93fD/BCmy4CD+36dLXcndPreXfklh2ukEwDgmjDRRsMTtfR4JjGut55rOymbNPlC1/jjevoRiDAUSnm/0ZovE6vONfRGNZ/zWTCefouIp30Wh45GeHRlxKnRgCj2ZsaWmGvE4+5khumVx/ELwB0sT6gnd0wQBKwodOmvnMXVcwvPjccucNAlH7TOBKeQ8O/Gxr+r9Lu57Fz17l+OuL1FMtzoSXxN1YcA3jWR2jUkxcQSPG82Un07sUj4jcOujhquQWgfx8A4c8B/QCfzrn++01Rmn6Ul8z1TrnllCq9nLPc0ilpz/KCz3MFXfk2gO/HdccdB0f+kB+R15YkXwbseuf57z1TMQy8S5xSpPsGjS86AjTQZ6dnvdCFupDlgqsUU99Fh2i2ceI9kLdproJ8Gd5TvKN0S0HfXZ5biu78YznlszLoGi+DrkPx4mwIcZrkHPQIuOKEowGsbLwC4Zc/vLmWL3yDrmloCY50eeWJS7Oj6DUPcEqLo0bPRyXJIXuATaf89bpft3Ceno+wczR2fz0qRtyXDVLo6UVJsuL9P1+DxHOnC10+0e4k9kHHiSinM+jigavbdDXSBNesI57H/GqiIUP+qJd09M659yntR2gcraugel07F/LFk166o2c79mRcNRzYpqDGw2qg3XXuoolxwHNTg+s/NiXAFWUs95yKPR7P7V73uXnndl8/Q3G6i+4mOHLKxT9DATS2XAH3J4AGnl+nsXXjNw66uFn43gWJnAYop083L9xZxI/lnCM3ajeGupHvjkL6rY3e0I/vs4YuVxzlir2PCwJQVtFJ4nQ4XcDMqd2fFxbSQjct8beiY8Ypxm1xv5cAXm9EG4W4app4PuPdBV2DdMyaR5v2GtSH9yB9fE6ziR+vRRjcFYLOablZOG3HIq9z3EdMeA3iZtOL42XQtT8Kz+NQENAjo/1L7B1ldZBInyVs+LRQsOLHUa9jGPNVSHzhGnRNQ0sVulCu6DA1SW/xrFT5jHFu/K1ooKZbUXrhVRHexQiPjR3DW408AUhxyb4uB+d5FMv1TKDLvZZTDWyIuZ0Hpy+5vyQXhAw3ca3/XP+1vYQ400Er/eDRg/VABgAHCM1ch4qc+dTrmrmSGz82XrTFobNXGnqzPghsVJDUtwCq9T6aXvTyniOZX3OnYocR1wMLEv9wRUbor4rP1Tu3+/qZCOFwmpFbu3BF5OAg7plF438iOgccucIzGlcv8lxC15tRd9FsA8+T7ifodmCdzZdnKIUuvB+En8AWuAcgI/x8lJnfNhwzje5rEK/1Qtd63jWmkSM3BBumnbBH1z6Rl+LdojE5AKkzOzJX4r3/BeAF1IVoa4h8DxyCuuQHyHe8f/oO8zy+JwpdyHeuXgQUD243qjsLJD+PegfnaufFC3Mm4rXII3a2Eh9A/cIV90g/V2tmrsG7imfbKXv+axA3g67xMuhCj4CepwcJN9s7vezws4sSf3tFPSfTB4waRxLAeD0LiSd/2HMgHY7lkTLomrqWKnSxDD3cdhwXHo9eO0em0DsNP88ZNep5n8mEMOnYkUv9dXuPzdHgseK9pPaYnyv3PH6e9vSiT2rse29LnVaq3RgaP67G5JRgp3Gd4NqOGJ9/Ad6+jQoZ75y+h6s4hYKG8L5pQudM5IbNxoJ2dHTCGngK0sLpRdp00aas2n/QxbwhZBG62IjR03zqR+5oS6/rZiOEqa4pKoD5i2pqSD+4JRp/2tyxXLV9DboXP0IXFwEB/DllTs/ktF/ULXvmIo68RwGNPxpudioIUKyz6eZCy1T3+bjnbKGL4fIdoo+7oQPwrvB92W5MYu9GB4l2fxxh4z3mUrgv903M8p1+Dd5pbk+Ezlnys8j3Eu7JfGdd0g1dSBt9ctE3F73Q813VNm82Yt4gj7STSJMIlDvas4WQl+nvI98f4v/ueb5rCOUGXeNl0LUvXtpNXeiiI0Du+YXKjMt0w8eh9/7OsiTRq6QbBzqKo/NG9SjMgjzdwsLzu+X7vwNclEHX1LUUocu7DpUOV4KxAWODRtE/VezdZZ12m3JDinDYANKRoo7WcFcDTpmf5UyZj6vceOT5M4Uu77cH1+jUCl070PkqR724wfJI23fOROL/gsaT05TvqDjbItFYmIsJftpAA4f/F6hC5vvGVV3ca5CrvXQ7Ftp4ci9WNm48bwHisV4xDsiT7F0tCb8dsJtD4zoA4HgxYPeWhjZuHaDvdf1M5N6TIyvshOp+mNwHEeUrfk5V96rtNP7uubp6kX66tkX8AF2RV+GdvLM5N/Fz78Etj+ipnnCsI13PRLm5Co1/r7Dx25Sgy/9edl2vo8gET06D0zkr0hY4AuX984AH/M7yowtJ6EtrroR2ZjXCpfsPbtekqzXp0PW9KJdoizp2VFQHugBnrnPU6JkoF39FJwj/EX56pm2q8vKAI+mfdka6BrcCdD2noCNxjGtnJN13jUHXujLo8qCLjvbYgPMI0GEDpEv5UUi4eoRbH8Q/UJb05TXJ/qGpvXwdAWPjwJ69ho2XgGGzIEHag/bf23tBKF9c9Bxeg+MqhLH6ERRuHUVwoYvOUQ26JtZShS6vDKCCZcWqTkwJ/hujMtu/KJkb6loWJm30+TtEY9XcnxsSfSkq3SwqNpZh5E3qW+jpEoK678uyOVvowpENVuhI3JPAiPwPHVuS/N8dlwBemV5HXriIU+oXaASfg3RzmTtAJ/o+PD/en9f2uvd8iPeRtZK4EtB1JKACIMOOV/zjiAtH3Lxzuq9baLlxyPytKaFTkWdpxHMIefZyxBNgrUbkvrplrqT1GMLM3NSQ4EuRP9s4wMI9FYf/0QVTOLfjHHVLnBee4Lwe95mS3HvoFOtX0fhzinUV3pdnoiG/DI1/r1EdXDOrkS7GGWWV5TL+oaqzQTQ650He88KKs2XQLWgT8A6r/jRHYli3tiT9Q7zXnK7dakwGAqMSf2cF75jPeN2NX2eky/NIr3svNvQ8XbzTK21TFfOG0PUAYPdrNd0NgM9XoetbDnTle0AX42bQNV4GXS50qXdjrxFHQ0lx/zVt0Pnb5hAahcDGBZ2y4VJ/7h+VuKQqqWvqaLwaur8YN1nlyIUa4LL3gxed92VvUCtFiEdtSAlr/B/ncVRD/XuhAsje1tA9sTh0Oy5O3mfTeC3lkS732nxrDcpjRQJchp5yymP8QwAggr2XhgnSouCOspT4ugMNtI2iJ/HI28qSpTNEXue/lp9Z2c0SuvS+D+K+6Pmq6wJ2UB43Julvu7ZQk1Wo+I+jJ/EPViRIX2WbIp+2LzibGK9x/p/w2rmUm0Z6pE9fjQb5GDTIHFHYdlTCry/q3nB8R7XRXoj4TCTcW+EHdQWno2lXxGk+OuWMnVkZP1oz1/FkeLg3R0xDr8N9N0f+0NP8q1BWukewcF4HurZyoIse6XNzDV3c3JsjXa5dG6GLdmN5QhefVdc1cwJd97R02yDuOMJtiLiNF7eDI3wFj55HPb0ggcMg1G8DoVG1O87fMRF0+Ua6fNCl5/RK21TFvEEbxg5i6pvO6s31QZeay+C+tnpxvAy6XOjSEa7uxpygw214eOQUH5cIbw/xhWNjugteCDSswX2KEjykKOHDAWIvLEvsLRW1uaBNCP23JK8AmP20plthENBoe5D6YU2S38R/qDh4Hhvc6CvKGgZ3naf3cN5jnTiZ1tVShi6vTKKxSF+PxnRfNAgbIy2AoNBeBd0Qd8KpNu9aHNkLV8/k9M3D1XebojLkJsW6v9pj53au42+zsOny/qN/Hhow0/O9LlXfDJX9W11P1d6ogz8M7zPygFNiCjl07LkH7v0aXMcVeOyMeOcvhJgOQFfmFsAC976jeQHKVXCbMcmggVG/SGhwxqVjocV7Mw5o3DK/bOgm5TrihGcdo9NMAMG8Q9dtgC6AKL3Te9C1zrQhzuse6Vow6PrKLKHL/176xd9RznWki9AVRPlg3cx3hp1xet7PzaeQRtqu4V4bDE0GXe7qRT90/c2BrrmaXuxAF7eHcqErOQl0mZ+udWXQNRl0eeILRvjilI13Hhs3bv/AKchNRmWAYaCXTyjjLv20c+HGwFxBQjsRemQOPcfVs6FnQEdwJ3r8fzAA6wA00BzloM8wTndyRSVBojsupnW11Ee6XHE3AtpuBHYvOM9/UzQK56NBJYj0ON8ToYwuIYL74zruSYfGIPoyVLhoJAhzWrH5r2Fc+dtsoIvCfxzB5Z6R8XMrTnndFunFe0Lj+J7AB+kI2Zo1ag+jHvNHRvV9SX69isp7/LkLJqQjV25J7L1Ih7fXKcCCK7U4ej3pSMhCyQUH2pcGX+LAD0c0o6ehjNyFMj8XUDOJuEovdBKeF+1eCVOLDV3e9OJcQddE8WKcCV0AW24bpNC1A8r5AWMSflZRoieU1Gt/9IXzpbJEXgIhv7kNE/dtVYekhHDGzY1f9/TiQkPXsNl0TUkGXVOBrm6xQqbQ2Ot1aOyH9ob2hGiTw73K0AvlSjQumaaNDQ2N/eJv+p8nFGB6JR9kGAyLgMd79Lq/abyWCXSxYUj9Eo3C89AooEwQYjh1wT0ZR1CpaZq600P7v7tbumUOyyKhK7hPQVJX1Zzpbf+5nhgG7jWb1Yue9F1CQ8dVXTrlhd44l9Krk1dObfaoVNWr999bEkYDomWci1aeX5IsGvD1TaXOl5j3w4+2tQFhB4m+uviOhl9RkvS1C+C+Yopi/mT+2pTwyYgjV6gOoXGlTdff5ghqeol5g3AzfyTsoUyzbkuPSez1FckDWMbZkuHcBYEuv03XQkAXoRydn/iHcc8Uyix96j0L8PAp16brT815FX2iUVmAFe19O6uRGWfGbwGhK90FXd70Yi9DesbNoGu8DLq6DelnIw/GAF7s7Ss8UXRUh/sM7eceKf7mgRq9SrPBJMQZaE1fSx26eC2Fa3XU6F0VZxobaaOdVOIDFRlGRTvONsMry822ZL5fl8BwwdmAGsAfORF5wNGx/+B837kd8Tsqu7mALv0f8VankedV1J6M71MYAEZ/d2rY7DWCbli0U0tfUUelXZCB5KgEDi5I/CKkkb1l79xFEO/NfVJjp5Z11Z3acu6HBuL8qm70vU6jstDivRnHuwDZbwPUpNCBQ+PKaeXcLWhcPXCYyzgiLLqEoAE1V5XSvmhoezwzlLX42Wg46R3df1/Eb9lNL/KezAPck9vgcJRLDenpGBX3HEHe0CZQHbMugHSrI6bHy0fGuwNd604v0gRgrgzpu6EraNOL05ZB11xCl18egE1VvcIwTU3LZKRLw4C4xU7oBDQMBJgcXQIAYDxHlG4lpVN0OHIlG22ouMhjCOdzOjt+KSABjc+EaefvCGfuoAuV69q2JK8E/AFSNCw8j/h7KgqR/J/ndeJMP05nI84ZPDc0furY8jeuwe9U7jkf4jPB/YdrgAs8qwBNB1CeOHIYoZ+pXzecRm8x4uaJ98Zz47Rx7P0VCaxy8i/0rKKkfjYDv25TkVumWXZTn0W+0LYIwMH99wggdFPSaWy9+C23kS73+jzAglsADR3ovNdD9Cl3BuABMKZ5xPfTS998yx8/t+xONNI1n9DlH+nq3vfSoKu3DLpc6JrW9KKpv7ScoAvXq/PLD7i2Izvj+u0BUu9BJcXrvcaBjQC3z/kqGsLtkH5OaacBTS8pq0H4+hoRXj8n0OUJaaKhdfStqPRpl0hv1ceXJP0rwArzBP9rw4X3jjYhQaRJR+a2H1M7Kj4zhbNeYS+EvHRy6vMmpOO1JRncBOngogQ8x9hJiCNtu5gOnMcGZZ0w5lu8J/OwDsD9es3ZW3MjgDZHCj8E0PamnHpdO1Pxnnh+nPqNnVNxFktk0diiU5CiA183Pzrn4v7LDrogXq9TrDc0JYy0873mFluc2s2i40Mg1zLhl3d9r8/+37q/+8/p/t3/3RPztANdCzvS5Yeubpsug67eMugy6Fr6Wk7QxcodFRin5mhkTnsnupCIEGB+S0eHj53HJfzcPmcwMapG1cG9UZl9CvehAftkAOPdZ66gyw2P04apK+oSwLOg76TgAYCBjwMG7ncqYE5T0eA7/m403qh8BwEMdIui25rQr1evsBdSbjqGmY7vAmZ3dkft6LR136IkLkLjUkXjwoad6ZlK3sxUvcL24vcgGv8/NCTwZMQPz0z3XnyBYxPXuW6u4ob7EVZSgJXQi9Ggb4jnFhmV2JvokLUL7t34LTtDep94bvw8vHNb4b6rCR0ov9+pTfxOL4R47w50Ld5Il00vTk0GXfM1vWhaOC0j6NKyiSMr99j7ys4UXB4Asz8A5oMAGJRbeqln5Zf8ds3ZPocraIOoZE9Br/smNIQIozP60EuMKyu7OYauYTRqWRrIo3LV6RfASuQEVPy3IU5Is7rF+CkaPRrcc5FJckztwLJokBUSp3Kv+ZSbDi4M4KhW5DTUD9xbcgenjIWOKOom2HyOOnI31fyZK3nxwzFXbCN+ABuANp8/F0/QaaX6OJureCEMThnppst4ToE9cC++bxuNSfIzKIu+qWPvfMZvydh0IW5cjajQNdl7Sbn3pf/F9A9dr/Rcqb5vQaJvLKtnfp1a9M7tvn4+xftOAl0LZUjfDV2a77gvn7tB12My6DLoWvpaLtBFeWV0LYDomroEtkAYTNumYxI+sCSZm9F4oWHhisXYWytO5c88GME9voDKrz7Fe7Cym8vpRS/e/1oj8S8g7fsVZIBOXndHY3g5Gmj8Tnup+EfQUPJ5cck9/qNBPdO63jgvsBQQb27oZs26RRE3OE4Dbp6HOHOBQANxnm4eTVHqVJafe4Xr/UaAQOPPjcY5DUpHndzjMIfnyec6J40Zrtd8uBKg8gzkA31GoTyHnlt0bNwecePq3YdHfO9r6CL0E7oGELfgDKDrkbY6wQ69GO8Mbf44vftkFzzud8+bTfr8Yrx7/d4txhvxn2h6cdwCnJmKaZoBdPG+Bl3jZdBl0LX0tZygyxPO4fl0hMiVsGzwAzuisvocR7vWSBINbuhoNB70Pr85GtxTAGRocKfUo2Vc2YDMB3Th/hn6czoYcdsYcSMMnFCSfAmV9Q0NCb+opF61afgffRsaBbqV6A6rT0Tg4H5+zOeB1Ygz6graUNHHXuJLeJ6uAbVu+MxrppNfnng+nxmPbIBQPjiaqW4BCHZe2P7z3c/01RQ5tazlno6bAygH0Xej/N/p5KkC0VTKg19uGvj+rEb66XAz/FQAFOGeDqJXoSxfhrSXETfvfP+1uGdf23QBukIo79OGLor3ZljoQKSuqEqQI3+uaUro0KLkUL5X4T+te2aTTvc6LVdID7+rT67u8zzxXh3o6j3StVjTi6wP1ple3M6gq+cfy1LuwzXoWmZajtAFccsX7l4QotPTDVFZ7Q6AOb4o6R/XJXo6yu5+LLtI94aoxFDx0cB6SpUY/+d58wFdUL6Nd4vTUXinaFTPFZXpb9QldgF+e0pBBhIASPR2099DZd3s04qX8UG8hvHMkl+tSfDZaDD4DFjekE/BpxTVsDz7p4Y2wnoNG0YvLZ66w+yS1kW8huXiQQALgCn2qapEjitL4mN4pkWU5V4NLq7lvpwZjtxwNwDAYIBx2x4g8SHEi1O6tJNjuO75qu5wPHn/My5sXNe2JXd9QyIvKzlTrNxbcwe8Xye5e2sCYDrX+cPA9X1t0+WNdA2izo/6bLr87yXv4ckfjiuCBKdcaU8ZoF9GruZEWY+ejI7PtSgPKP+Mo95zknDGyX8erluNz3T7QnuxzK+c0eAJwYvxRvwXw5B+MpcR+hn37TXSlfwkoGus693n0X/9MpVBl0HX0tdygy6vnOKYL7cUsNjQc5qLoMWGMHgYwqYvLzSE4eeVdI9FbQhZiXWH1y2Gz/PmEroo93zanNHFRfgYhJtBg7QPwn1BSY2OeY+hLRHnE4vaOHO6ZkpxXmh5aYdyaGBpL6VOU7lSdFvUFzsDvA4oSPTlJYUy5qNCrwcjFNMFsfFlnfMYYDnyRkQ4ssURP061xs4AmB6F++DZBg8uSoILEdiIMy5euBS+cyQrX22pgX/wcFxDT/H0H3VgQWLvLKOxBgAQan3XevHwyx+nkYfReI4hLt8D2L8I9SN9CG7tlrMTARV01IuGd1xcPPE+CKPfpxdD6Liw8edKTHXiC9BVb/5evHiuJ384fnEUEDAUeZ07CkgXI/ujnCOtycvrahPIxSH6jN2wNK+75M9/Pk+118TzzgHm4++v6CgrHR+nr3D8gXVfr2KeKnT13gZoMaGrp00X6rE4N7bn1lVevrh5oPKuX6Yy6DLoWvpariNdECvh1A/Q4LMhzqLCojNdwhZ72Jug0sM9uL/nhBVyLzGurNzmGroonM/phDwqVAIEAUufERomur/gZsk0yE58ETCB3nuvhqhvhLR4DThXLXKVZejIogT2wnNFfukKto2RnqMBX29DY4tGP/OHpkIap780fYAYnWZhGHjunNLV3wFowziPW+ukvl6X+NkVCT8bz4EN+KaQGu8XJPJ6PA+A9zpxo9xws3he3HQ8sBviRajd0Bl5iZxc0qlAeqsnpKhdnVv2ND6eGK/70WiWUB5+31Ajee6lyalEwp/uGABQSX0PDT8a13Xi4YllBfnVl9DFI/5L/xLP8KVo/GOo8+nygYtPkOZVhGWeRxEg8PyoCeOKe9BFB+3duAUQQWJwG+QVRDiPn1+V7A2A3jHkO9oadi68/PbC6OQ/74FyMdLAPe9sShrve/QMtE0oZ7r5/S4FBTCdbvZd3xHzVKGr/0a6OtB1S0NXvw7EUSZ2RHl6ZVEy16PT9dBjecB3g3UkXeHotGr3c1wmMugy6Fr66jPoyhO63oNGcFc0gogb/WhNG7oYHsXw0KjGTgXArEYaUU45+qDwxRGjpxYlj0Z1NcLUNE8lvTyHjYYfupiPAIno62YJXZA2emhkWBkHCYucmuIODXg+g4hz6ClFhQ0PAGZyjwWTGzdNExqC3M0N9Vgf3AnPln68mCY0uFw0MAjgCb8aDe4nKpL6GgDsmoa69SCEsUzSqWnulqZOQXHaiPtqht9UApSjcQ3gehqqA6bpB4vTr9Ezy5K5CQ03RwN75RF+8xrufKElyUtQ5rZGvPguUIC3AMRwGB9uV8NRLC5o4AhYDuCXw+fsvYC/3zR0L8zwSxEfAjJXl9KWEFDDkaE0gFOBi1NcjMsE8elA15kAEY6QEbpOmh/oSnF6EY0/3ZPQQeyE0OVdx8b/ZsTtFDT+QaQPYBsEMHMrn9wdAFOCVgXP6I8An6/XJHUlYMKFpXXCYzr4Lq8B9P6yIdFXIr0bOfnOzhA3fg+/ArD0qapkftHQPMlVETbAiSNZ6lSWkMV7lvEc8B7STUnsvShbRxackTju7/s4wDOgLo2yxJGzyeKSoX+5k8u6NVQHum6fB5uubwG6AORDWwO6njs5dFH01p/9S0O31BrAs9KdWfCuxD8BMEU9wBHiXBFl8Nam2kqmrqkr0HY7W10uMugy6Fr66jfoQu+Wzk25nJxTDlyll6Lh9TRHujpCZcsKOXQMGmf0LrltDkdE1Pv8hVXJc4/F6aST57JhehgNLqAg+CJAl7tFVfS02UOXEz4q2tuaEnt7WbcG4hTjEDfjxnsW+yh67ez9+8/3X9/PwrPjlkdsaMIvQUMbQtkjMG2DI0e/tkGjksEzzxX0uQe5sT2gNvhC6PkQGlS6d+DoJ8/j9OsgR7fQgBG6OJoZeQ0g54q65O9FHnkQMVEe4Xfmo45W0Z3BT+sSYby2QJju/p2DWcQHABQ8vKAjDNEzShI7tyLRd5UlAugLvQTxYpliQ8p00DfcMK4FcNFuiRts83lpmZnsWelzR/7cCbDBc+d7OZRAGICu/N1zb0ifuhzvGG0aEV/mcQJgOSF04b46AstVv++tyAZczIEyOcgt2/A8OPUdPrUk4VchL/BeBZ5QkMhLy/qO9AQdinGBuOF8/nYAA2CbMK776m4MccSReb8Xwj+uqLAXPacsiQuqkgBwx85F/gOIw68vSfBZuCchldeyHBBOAKyxN5cl+0fkP0dIJ8p/5imhC0BJwCaoDXBPzrMeg65p1znd4n096LoS0MWRWNS9BPIkOhA9ocu7Dr8Pl1sSfz8gmaOxu/ny/VjkC9IffjXKIeu3rZDmsyuSX4M6aLF3gJgnGXS50GXOUZew+g267kPF/saKDKDCHUAFOoDGT52WcsXXdCtAhovKll6vuZJxIHqf+rjiMD1XAmY4hcEwp5NON0xuiJ27saUNBeOpGzw/q6RTg3qOp15hTCZegwqaPfnklx2P+drA4R6088r8vK6GwjMKe7HFOAOC2ejTO3nywppE0WAEn4LGhLASwbMZQF5y5Is2VjuibiF80DYKZXXwCfiNftXw/Lhv4uAAfqP9Fqco0egnLqpKDo2nuv6gIXyvOEwkxI1wREhK0Bj/Fa4RPMGQIzvIf53u3YkgAHH0ka4wNoMYXxqXb4TfDwFwABCSF9ckC5jg1KOme33PjP+hXHE6kyDBFZ8DANLoqwBdALE5hS50YJKXVWVwhO/CfRJEnONfRAdkkpEu1glMS+aXDYmgo8FFHjpCCQ0BMnUHAqR/II3PeJZRAI9OD3eH5RfjA+VpCzfqjAKxo8HNsDmqq0COZz3I3QM2d/P+SQAsSKeCCd+MB98/PqMsQG0P5P/rUBZQZ3D0R/O/1709edCF8sjrWEdsMHCfhN9SQqdq7v10cTcE7pnKvCOsJ9GhHOEo6GQjUyjLmu+vRPyY58xjppnbSiH9mu8cXUVZjZ+JTtla1OE20rUM5D5Ag65lpn6ALor3QkXB/QYTn3Ycl4aejd4cQIOe2tXQ2pue6XV9L/FcNjIcxaBNEXqGQYTHY+ILaGRqACSG2evaieSGScP7/O0tNQYPIp5coae9zDGE6T/Xf+1UxGtYQa/laAR9jeHZsGcLuIi/HeH/E89nuvnQL/LizPwjfKHxz1zfULhk2iIvRI/9WXhGR6BhPQjp5jQwRwU2htjI7o18OBB5fbhTLnh+7N0VSV5Oe7CGwpzas3Tfb6pivB5qS47G8NcCvi4gfJUVdoMHuY0945ODOEqE94ZgFkJ8IsciLqeXUa7cuHAqjPf3IGYqccG5NJDmaGbwOKTzmQVJfALlFB2RVXMxcuHGh/ZN6R/VJHhCUQIAnMjpJUl9v+aM+Hnx7SVcz+nVzE/qaqDODbyZL9z9gQsjCM98b6NnlJ2dEv49BejCUe/JeLXbOmXG0R+ubg2zPByNvN8fec8dDtwRToUwQFkAHR6OiHIvy9BzSmpjFv9MVXefYNma0k4NjAPeJ92h4mPId+R58BkFiX2uItm7m2rTNSfQxfShbKWvqevIXPAY5PtpJXU4qzZpk73TuFbt8K5CvqM8hp6GPAEoM8/5PgTwvrBei+K/9PfQkQTE8pqeYS1xGXTZ9OLSV79AF+XCBqfW6O4h/YuapK+uq00Lh+C1IplOnHAuK3RWmjSozlxXl9TVCBPH3D20i3KnHXpdux5pA4XGK/NbhIl4UlwBxf0Re50/ZTF9/1uLhr8tiY9VZSiK5wPwImRwJIAjbDONc1+JaUA69fng2XKJP2El/ZMawKUi8Q9UJPbWskReDug5siSR15UlelZZG8bEV6v6HDt2Vl7ZcMPTPJxJ2eU1Go5bZgDr2VsRp5/XJXFJVacVY6dXJPo0xOcExAWQFf8woO+bVcle11DbJk5Tahw4MuWF2X2fiYTr6DIk88eGlqf0T5HGW9CI4rdOeHOhB5HfeKeYh8mf4T6/wfvgboM0KSQxXTjSZih7M2D5KsDyZVWJX4RncnFVYUnfVwAM7d6mXE69POL5EA3ECb4cdUz9CHmPDhK3v4qeCh2DMnEcysJrkf/vQDnBO5L8Lu77y4bWGwq7DGeq+eU+c3bAaAOYQp6nAKQZPHc1SmdY03mGveTeY+RRAj3y/ee4B/KeTnJpq8jfp5JXHLXjDhXJK5HvKI/xzyPfL61K4lsATZRR/qflr8e1y0UGXQZdS1/9BF24H0dxVouzaseTDpXPtvLD9ePCnEIltz7RASNtXbww+bnT6Pc4f0pyr82gt87pBE6b0CFq9Gz0vG/nKNccjHj0i9x0OI0knz3ykCMLaNTzjZaCch6NVO5eNKZFqALAYqPC1XJufnfKhhfebPPGF4b3fHWU6UF8p9Ey3g86X6WvKY7Kanwe9c7DdbONi+aFkzYtUwiT78Ss0+UX74E0effQMkX1OreH+Lw0vfxMeymu3qS/NcSxkw+Mc9d165WXRo2fExbLA52mcoSNBuOa9/e1JFfAserk/6r/85UF777TyS+ei3syH7x3WZ854zGX+U4hTO8eTt47+dnz3G7xPFzD8zlVyXzXY6f8uXHude0ykUGXC1008O3ZoJv6X/0EXZ54Xw7pe5qreMx1mAzDH1fve69zpyJcqw1su+24MdivoIbidGeQ+kZNhpvudCjv1ev6pSp/PuKodQwbj+4GhI0Nxc/+PPefM9fy4sbPE8Wp+7zZykvbfKbPi+9M7+Nez7TrM/HyxQvXf+5M5A9nXL4TDl1AxG+drZRme19euxD5Ts3mPu75Xp533gf+Pp9x7hMZdJlN19JXP0IX5VUicxmH+Q5zNuG613OJeO7WpkROKjsr6FbhubyhpO4SOvZKs7lPP2s6eTidc2ej6cSn1+8zkZe2+U7fbO4z33GjJrpHr9/nIj4Mw1Ov/+dKs7nPRNfMd5z7RAZdNr249NWv0LVS9ZCzajH49KKuUKIhffIrVTWk1d7+SnkmTOdE6nX+QqhXXKhe564kLUQedOe5p17nrhStwDww6DLoWvoy6Fp8+fI5N9pUT+r0x8Ml8vSmr0vf6U+M0OW/zmQymVaQDLoMupa+DLr6RjQQT19dl+C+RfW7Q7cJ0Y87zlB7nW8ymUwrSQZdBl1LXwZdfSH6dOLWMpGzyzJ0YEG3/AgeUHQcuC53Wy6TyWSaggy6zJB+6cuga3GFPNb8fmCNpH/fkMABBbxTYxLYHc8DAKbL4n3nrnO9yWQyrRAZdBl0LX0ZdC2uXOgaLrZ002R6OufWJ+FnFXXT4FV+D+smk8m0gmXQZdC19GXQtXjy3qmHHWeooecXZTCJ9ykzKrFTypK/o6lOD+05mEwmk0FXB7rUOSpXW/Vq1E39LYOuxRPzF1DFfSWTX6zpnnJUcJ+CpL7gbIRLr+g9rzWZTKYVJoMuz5CeO+4Tugy8lp4MuhZV9ChN6Mr8rqH7+yUuq+p+c7m7fbZcJpPJZDLoGje9+ERfQ25aOjLoWnQNPwLhnRqpQNW2s58f/XL1ONdkMplWqgy6CF2buNBF7e7KRryWjgy6+kP/dQzqNe/NCarJZDKtI4Ou/dFgbzwqg9uPSeiYogSPKsjQHvgN3xW+ejXypv6SQVd/iHntV69zTCaTaQXLoOsQNNir0GCnxyT+3rLEzilL8JCCDI6MamNudl5LQAZdJpPJZFoCMuh6ypgMbArlxiTx5Ypkb2xK4oNVCeyI36IAL4527QnZqFf/yqDLZDKZTEtABl1HoMHeBAJ0xT9fkeF7W5L/W0tSn69J5LiiDK3GfxsCvnZAow74opftzghYLwAwLbwMukwmk8m0BGTQdTga7MdBWUDXpwFdhbaseniN5Edbkv5JXWKnliX0jKIEdkajvjH0uFGngSd00fCeriY8w/u5AjGEM2hgN3V50LW3QZfJZDKZ+lcGXYehwQZMEboSnwJ0jQG63JVXXPKevaMpqW/UJHYy4Gt/wNcuBUAWtAOueTxEg3sCGQGJ8OWNhPnlAVkvdZ/rXj/YCy5MvcX82hFHgy6TyWQy9bEMurqgKw/o8s6l00d62yZ85e9tSfqahsQuqEr4pJIEdy3K0IZo6Dn6tQ1EH1+EKEIAP0OBXRAujpMK5/C8IYrXujA2uPOo+Q2bqnzQFXlrWfLl1jrP3GQymUymxZZB1yTQ5Ynwpdc8iuP9bcn+oyWZX9UldXlN4u+vSPjFJQlw9CuDcIY8jTqKQmko10P8PQIFIPd8hhF4YkGCRwPq9nOhwuBrcnGEcHvkG/Irek5Zhptt53l5z9H7bDKZTCbTIsqgazLo8q7r1iNtWQX4Gqm3JX83AOyGpqR/BAj7Rl2Sn3NALPbmskRfXZLwi4oSeh4g6tkFCUHeUXVsQcInFiXy8pLE3liW+Acqkry0pmGlf9SQMK6n8b6O4nijaKZ1pPtmbofjgQWJfbCC59PjmZlMJpPJtMgy6PJD14VThC6/522cN/xwW4YfgNYCwqpt3XMud2tTMtc3JH0d9HMA2U8AUpB31M8/w/E66HcNyd7SlNw9Ld3DbgRAl7uvJdE3lR+DLo7m9ACOFStCKO3f6M5jL+TR48YkdFRRkt+smTd0k8lkMvWlDLq4etGFruSnqrp60X9uT/E/T/i+6n84drTWOXJKcgqNv05d8jxXq3D9avyeRzyipwO66B1/J4CFQZcjF7a4upP2cIPb4Tu1a0FiZ1Ukd1vTyf/Jnp/JZDKZTIsggy6fy4jEZ6qSLwK6CEA+qFqvvHP96nXe+uRexxG04fsAXacZdKncxQWULj7gZ/yuwLV6TIJbALjeWZHszQAu2t15z8+ftyaTyWQyLbIMuji9uBEa78yYRD9c1mm9EcH/HC3xrlmoBtx3n+FRgy5KndHu5Wpn5MXqURmIjOqK0fALSzolnPlVQ4Y5LYv802drMplMJlMfyqCLG15vgkYcYBM8vCDxC9CI39SU4ZY7zeibLuwAmA+O5lS+cFcsdHEUC2lV43g6nt1xVHRDcsAW3WqEXlCU2DkVSX6tJpkbGpIvtnRF6ci/ffloMplMJlMfyqBrHxe62MA/EeB1YEEiryhL4gI06tfU1bhdAexRXOPaXXXkD3cieedMRe75jF/+vrZETl0h0EXQ4ogWnwHTSYezGwK0NgJ87VGQ0DOLEj2pLPEPVyX947pkb2/qgoPhh9ypYP+zMJlMJpOpT2XQ5UEXR1ZoM8TPWwG+9gd8cfrqXRVJfRMN/Y1NyY0CwJpo6B9Eg0/bIX/YcyiFrgKga7kb0rujWiqkUb374xjA78HdChI+tCSxtyL/v4H8vwmgxVGth9x88kYf+Xm6cGsymUwm0yLIoGtfNPabjsogR1kIAYQvjrpsg99pOxQBABxU1FGnxPlVSV8BAPhDw3HvUGtLfi1HXBAeR8J84Q/j83SgTK/hZ1y3+hFn78dlCV3MY4qfXY/8g9xG6fHI600BXHsBdl8L2L24Ktnf1wGfLRlB/nJVJ0GrsyKUee3mt8lkMplMS0EGXYCuIUCX2hD5wYCQQ/jC74MAgsE8oCAKKBguqD+oyJsAYRdWAGE1yfymIfk7AWEcieFI2P1tWfUAQIFOOv8LWJBJBJjI/xtxehiiny+AXO7elmR+XpfwCcUOnHRAZSmL+bmPqycgX5Gn6oU/OaZpjZ+P/LwaeflPgNYjyEc8J90HkzLIMplMJtMSl0GXN9Llhy7KAy9vhImjTdzkGrCgv+FzYNsxCT4BELZ7UcLHltSvVuzcssQ/VpHEJyuS/HJNUlfVJfXThqR+3pD0rxqS+SP0e3y+Fr/9DPoJ9M2aJD5fkfhHcf07yuqhPrRnUQL++CxFIQ8HPVstjtgRtFLIa4gwGzquKLG3A7S+7I4ecvoWz8U8yptMJpNpOcqgayLo8ssb9aL4mSNPj4e2wLWbO0e6MwgALDhipjZJODe0P4DsiKKEjixJ+GnQ0SWJPBd6Nj4/A2CF30JH4v+DixLcu+BcTw/ruMfgVjjSE32v+PSzCKvMS0IW07Ed8pZ2chsibdvRa3xBYq8qAUqrCqPZ2wBaDYDWw87IlhnGm0wmk2m5yqBrKtDVLW8UzIULPXJUhyNhDGsY4tSZJ37v/s373f99I2hrhEFbJwIe79Pr/v0mLz/cOHPbokFA6eA2zvfQvkUJP7UksTeUJXVFTfK3NGS4CtjiiJbaaq11vPr7npHJZDKZTMtNBl0zga5uudDhn0rriCNXfvX6z/vMI+KxJICL8fOE7wRF7z+FrY3HJLh9USInlyT1tZpkb21KvkFbrTWymnZu3c5nDbZMJpPJtMxl0NXLkN60Xml+7Q3xuC1AKzMqAwHk464FBa3El6qS/W1DRqoArYeR3wQtSPOejkwNskwmk8m0wmTQZdA1NXFEiyNwzCccdUUnp0fp5mG/goRfUZTY+7iasy65vzRluOas4FzHU7yNaplMJpNphcqgy51eVJjoBRsrWR5ocdqTn7eGuB0PQevAgoSOBWi9qSLJz9ck/euG5P7Rcrz3P+K4euDG3es8A5PJZDKZVqgMuubCpms5iXBFo3iK3+nmgSs1dwFo7VaQ4J4FiRxd0i15Uj+sS+6vTd1sepgjWr1stby8N5lMJpNphWvlQtfatvrFUujaZIVDF0HLE7+7XuK5CpGe+Yc2G5PgU4oSfUtZEl+tSeamhoKWTh0SsjxP8QZaJpPJZDJNqJUJXQAEen+PfxzQRe/oG69wmy5OIdIofi+A1nZQAhAaQp5sS6P4osQvA2hd35R8CaClG393uXgw0DKZTCaTab1aWdDliiNd3C8x/umKBAkb+RUGXbsBrDxbLWhwyzEZSAK0kA/BgwoSfklJ4h+oSvr7dcn+FbBVbcvwv1zg6spLk8lkMplMU9OKhC7Vf9bo9juhw4oymB11/GR502vLUUybB1l0vroVIIvOWOkpfjeAFo3iTy9L8uKaZK5rSO7uluTXALY80DIv8SaTyWQyzUorE7oAXJwey/6xIZGXlWVwY8AIocszHl8uImj5PcXTYz5ttLYDaOG34P5F3Zoofk5F0j+tS/6Opoxww26Clt9Wy82zdfLRZDKZTCbTlLVioYtAkW+3Jf7JqgT2Kjir9DjFuNTBywMtHjmitYtzVOjaCrC1eUFCBxQlek5ZklfWJQfQGkY+0Ch+dfd2PJ66889kMplMJtO0taKnF2kQnru9KfGzyjIQHtWpt8BeLrT4trVZMiJYERy5OIDQxVWZkVFNWxBgGTvb2fsw++emjNwP0PqPs++hLixgnpineJPJZDKZ5k0rGroUNh5sS/bGpkTPqMjgRu70G6GL9k8El15w009iHDl9CNgaxOeBxwOyMgDIx49J8KkFib6hJMlPViXz87rk727JSKstqx5EurvhymDLZDKZTKZ51cqFLlcc4cmvbUvmpqbE3lKR4NOKMkTbpy0gb4Vfv005ErQ4okXQ4ojcZtBqCMAYOLwg4RNKEn93RVLfqKvdWn6sJcMc2fq34yXePMWbTCaTybTwWvHQRakLiUfXSO7OliQ+V5Pw8SUJPKkgQzsDZOiNnUeCl6eFHgHj/fz3J2g9AWLc8H9wN8dOK/LisiQurErml3VdfUhfZN40amf1Ib/bqJbJZDKZTAsugy7KgxDaNzXb6jIh9p6KhA4sSmBTF3AIOoCvwE4O6HRAiMf5gDAvXBe0OHWo8Mf701P8tojLNoCt5xYlfl5F0lfRKN4BLR3JokG8gZbJZDKZTH0jgy6/CCYEFRyHG23JXt+Q+PmAr6cXZWhDgM/AqAwGoe0APXQxsS+0N+CHU31zCV4Iq2MQz3vsju9bQrj30MCYBHctSPSMsiS/W5fsbU1nk2ndkqdr9WF3+kwmk8lkMi2aDLomEiBm+IG25Astyfy2KalLaxJ/R0XCLy5K4NCCDG7ymBf3wW0AQ08EFHk2YLMRYQvgNbgtwh2GkoC6Tcck9LSiRF9fkuSFNcn8rCG5v7cAW4jjw05ce6bBZDKZTCZT38igaz1Se68HAV/ltuT+1pL0rxuSvKwmsbMrEn1NWcLHFyV4REECexRkaHPA0mq/AE1TlnPNEAArsEtBgjSIf0FJoq8rS/y9VUl+sybZGxuAwHbHKF5H5bwpRJPJZDKZTH0tg67JxGlGHj24gehqYbgOCLu7JdlbmpL+WV0Sn61K7J2AsJeXJfJcgNhRJQkfWpLQQQCyvQFQALLQkx0FnwTtDnnf93SM4MOHFyVyNCDrRWWJnVGRxCerkv5JXX1q5UdbMrwGoNUVF51CtGlEk8lkMpmWhAy61icPbPyA8z/Hezul05D3A8JaLcnXW5K7tynZm5uSuboh6R/WJXl5TZKXViV1MfTFqiQ+V5X4F6qSxPfkJdCXa5K+si6Za+uS+2tD8iWE02zJCA3iEbZ3H7XV6hUXk8lkMplMS0IGXTMRgYfTey74rBIcVY6Hd0f4zuN/8f9E4rU4Oue6YhgIS8PscS+TyWQymUxLUwZdJpPJZDKZTAsggy6TyWQymUymBZBBl8lkMplMJtMCyKDLZDKZTCaTaQFk0GUymUwmk8m0ADLoMplMJpPJZFoAGXSZTCaTyWQyLYAMukwmk8lkMpnmXWvk/wGtOXO+EDTLhwAAAABJRU5ErkJggg==;" vertex="1" parent="1">
          <mxGeometry x="101.5" y="49.41" width="257" height="71.17" as="geometry" />
        </mxCell>
        <mxCell id="uYjZoTfT80EFfSONELpA-24" value="Architecture Scheme" style="text;strokeColor=none;align=center;fillColor=none;html=1;verticalAlign=middle;whiteSpace=wrap;rounded=0;fontFamily=Courier New;fontSize=27;fontStyle=1" vertex="1" parent="1">
          <mxGeometry x="380" y="70" width="310" height="30" as="geometry" />
        </mxCell>
        <mxCell id="uYjZoTfT80EFfSONELpA-27" value="Streamlit app" style="shape=image;imageAspect=0;aspect=fixed;verticalLabelPosition=bottom;verticalAlign=top;image=data:image/png,iVBORw0KGgoAAAANSUhEUgAABDgAAAMGCAMAAAAgGcTuAAAACXBIWXMAHoSAAB6EgAGMxOQ/AAADAFBMVEVHcEz/VFT/Skr/x8f/x8f/s7P/8fH/dnb/Vlb/Skr/jY3/jY3/2dn/dXX/k5P/UVH/V1f/Skr/yMj/yMj/x8f/T0//x8f/Skr/lJT/jY3/zc3/Skr/yMj/Skr/Skr/yMj/TEz/Skr/Skr/TEz/ycn/TEz/Tk7/jY3/TU3/z8//yMj/Skr/jY3/ycn/TEz/S0v/19f/jY3/Skr/jY3/kZH/jY3/y8v/Skr/zc3/lpb/ysr/Skr/jY3/y8v/yMj/Skr/jY3/Skr/jY3/ycn/yMj/Skr/yMj/x8f/S0v/ycn/ysr/jY3/Skr/jY3/jIz/yMj/jY3/ysr/yMj/Skr/Skr/jY3/ycn/yMj/yMj/TEz/jY3/jY3/zMz/yMj/yMj/TEz/Skr/ycn/S0v/yMj/Skr/Skr/Skr/yMj/TEz/S0v/ycn/yMj/jY3/jIz/Skr/SUn/yMj/yMj/Skr/Skr/Skr/Skr/Skr/Skr/ycn/jY3/jo7/ysr/ycn/Skr/j4//ysr/x8f/jY3/jo7/y8v/jY3/ysr/jo7/lJT/Skr/Skr/j4//S0v/jY3/x8f/jY3/Skr/ycn/kpL/Skr/jY3/hYX/jY3/UFD/jY3/ycn/jY3/Skr/Skr/ycn/kZH/jY3/yMj/S0v/zMz/XFxHcEz/j4//R0f/jo7/VFT/hIT/ycn/i4v/kZH/bGxHcEz/jY3/jo7/Vlb/h4dHcEz/mJj/YmL/X1//U1P/lZX/ZWX/Y2P/kZH/ysr/kZH/oaH/VFT/oaH/TEz/Tk7/nZ3/q6v/ubn/Zmb/aGj/lZX/VFT/TEz/XV3/Skr/jY3/x8f/i4v/SEj/j4//Tk7/TEz/ycn/Rkb/iYn/y8v/k5P/0dH/lZX/09P/kZH/z8//zc3/UFD/1tb/VVX/hob/goL/WVn/XV3/Y2P/a2v/c3P/paX/uLj/eHj/vr7/qqr/wsL/r6//UlL/enr/l5f/YGD/xcX/mZn/cHD/bm7/oKD/aGj/fn7/fHz/Zmb/tLT/nJz/dnb/u7tPrai+AAAAy3RSTlMAAvv7/QICEvv9/fsEAgQEBPm9svkI9MsL+Bek77fVyS90ZBUHJAx1EA/r7plvKl0LgerxEs0mVhIPPpfXK+bf3q2jdt4/10c1hTjkSMFaxKwzqsS9UpWg4h1lsx5dziCCizmbneKKYRgEWCFGGnqRBmVuwNCo5tp/MCNKkPG6L9LpNUOSTkso9GoeQ+zaYLKlLE+LBGxMx1P1ho5pF9J8PBv5ADj8QHE7t/seZQBCPdN7ANSawubzu/H8/JF0h4/h8XpC/aXX+2If9CjRJkIAACAASURBVHgB7d15fGRVmfDxU6lbzCRNkuqmadaGBtm6ZWmxRXZQZEeRfZFFNqFBoNkEWQREEBFckU1B8IP6mvEzOp933hln3s13f31TSaeyd1JJg6COy4wKjIqO+j7nVlVSVam97nLuPb/6g9SSVNX99j0P5znnuecoxQ0BBBBAAAEEEEAAAQQQQAABBBBAAAEEEEAAAQQQQAABBBBAAAEEEEAAAQQQQAABBBBAAAEEEEAAAQQQQAABBBBAAAEEEEAAAQQQQAABBBBAAAEEEEAAAQQQQAABBBBAAAEEEEAAAQQQQAABBBBAAAEEEEAAAQQQQAABBBBAAAEEEEAAAQQQQAABBBBAAAEEEEAAAQQQQAABBBBAAAEEEEAAAQQQQAABBBBAAAEEEEAAAQQQQAABBBBAAAEEEEAAAQQQQAABBBBAAAEEEEAAAQQQQAABBBBAAAEEEEAAAQQQQAABBBBAAAEEEEAAAQQQQAABBBBAAAEEEEAAAQQQQAABBBBAAAEEEEAAAQQQQAABBBBAAAEEEEAAAQQQQAABBBBAAAEEEEAAAQQQQAABBBBAAAEEEEAAAQQQQAABBBBAAAEEEEAAAQQQQAABBBBAAAEEEEAAAQQQQAABBBBAAAEEEEAAAQQQQAABBBBAAAEEEEAAAQQQQAABBBBAAAEEEEAAAQQQQAABBBBAAAEEEEAAAQQQQAABBBBAAAEEEEAAAQQQQAABBBBAAAEEEEAAAQQQQAABBBBAAAEEEEAAAQQQQAABBBBAAAEEEEAAAQQQQAABBBBAAAEEEEAAAQQQQAABBBBAAAEEEEAAAQQQQAABBBBAAAEEEEAAAQQQQAABBBBAAAEEEEAAAQQQQAABBBBAAAEEEEAAAQQQQAABBBBAAAEEEEAAAQQQQAABBBBAAAEEEEAAAQQQQAABBBBAAAEEEEAAAQQQQAABBBBAAAEEEEAAAQQQQAABBBBAAAEEEEAAAQQQQAABBBBAAAEEEEAAAQQQQAABBBBAAAEEEEAAAQQQQAABBBBAAAEEEEAAAQQQQAABBBBAAAEEEEAAAQQQQAABBBBAAAEEEEAAAQQQQAABBBBAAAEEEEAAAQQQQAABBBBAAAEEEEAAAQQQQAABBBBAAAEEEEAAAQQQQAABBBBAAAEEEEAAAQQQQAABBBBAAAEEEEAAAQQQQAABBBBAAAEEEEAAAQQQQAABBBBAAAEEEEAAAQQQQAABBBBAAAEEEEAAAQQQQAABBBBAAAEEEEAAAQQQQAABBBBAAAEEEEAAAQQQQAABBBBAAAEEEEAAAQQQQAABBBBAAAEEEEAAAQQQQAABBBBAAAEEEEAAAQQQQAABBBBAAAEEEEAAAQQQQAABBBBAAAEEEEAAAQQQQAABBBBAAAEEEEAAAQQQQAABBBBAAAEEEEAAAQQQQAABBBBAAAEEEEAAAQQQQAABBBBAAAEEEEAAAQQQQAABBBBAAAEEEEAAAQQQQAABBBBAAAEEEEAAAQQQQAABBBBAAAEEEEAAAQQQQAABBBBAAAEEEEAAAQQQQAABBBBAAAEEEEAAAQQQQAABBBBAAAEEEEAAAQQQQAABBBBAAAEEEEAAAQQQQAABBBBAAAEEEEAAAQQQQAABBBBAAAEEEEAAAQQQQAABBBBAAAGDBHpTBn0ZvgoCCBgv0NtX/Ip9RI8iBT8RQKCugISNvg2HffihDc/uKPfq/iovIoAAAlpA+hh3Xvjk0z2ZTM+y5/b9qPsEMggggEA9AYkb+z66ZTYznMkMD49seXr/Hel01PPiNQQQ0JnJnU9OZZYNZNxbz06ZLcd+R3dCuCGAAAK1BPrUI6dOLevJ9zd0p6Nn2eyyv6bPUcuL5xFAQA9nbHhudpkEDElT3JvcWZZ5+kUiB2cHAgjUFOhT+2/ZyR3dKAQOfX9g9tgdyVZqmvECArYLpNQ5swPFzkZJn2PL/gQO288Njh+BWgIpddixIwPDlZFDnsg8ROSopcbzCFgukFLvnloSN4YlbgyMkKxYfm5w+AjUEkiph0ZKxkWLoxz6qYGp/RkfreXG8wjYLNCrNpy6NFHJh4/MwOw5RA6bzw6OHYEaAim1/5TMxC50NEru6GTl1A0Mc9SQ42kE7BXoUxfKjMpCAUdJ2JC7Us0x9W4Ch71nB0eOQHWBlHr2/lqJigQO3ec4h8hR3Y5nEbBWIKU+UG1Gpdjx0IHjfpIVa08PDhyBqgIp9b7aiYqOHhI5JFlhcY6qejyJgJ0CKfXIozIsWnVkNN/pcEvPmVmx8/TgqBGoLtCr3l8vUXG7HBmZWXmWYY7qgDyLgIUCMqMyVXNGJd/jYGbFwvOCQ0agnoCeUcn01EtU8l0O6XMws1IPktcQsEmgt/6MymKXQ5KVw0hWbDo1OFYEagr0NZpRKYkclIHVZOQFBKwSSKnr3944USkmK7Pvo8th1enBwSJQXSDVeEalpMuRuf96Ikd1SJ5FwCKBPvWlxjMqJZFj6v0EDotODw4VgaoCUvrVZKKykKx8hshRlZInEbBJ4GONSr+K3Q03cgz3ZB59RPXaBMSxIoBAhUCh9Ks0NtS/r69ZIVmpUOQhAnYJpNSdTzc3o1IMJ3odwVmSFbtOE44WgXKBBhfTF6NF6U/Z3C1z/yMMc5RD8ggBiwQKMyqlcaHx/XyyYpESh4oAAqUCkqi0MKNSDCmSrPSQrJQ6ch8BywRamlFZiBx6ZuV6ZlYsO1c4XATyAqn8xfTFeND8T2ZWOIUQsFag9RmVhdCSn1lhHUFrzx0O3GqB985W2fBxITrUuaNnVt5+JzMrVp89HLydAim1byslo+VhRCcrH7DTjaNGwGaBlPr8Tq2VfpWGDnc72S+x6LnNZxDHbqlA24mKjiBuskIZmKWnDodtrUBHiUo+cgxMfcxaPg4cASsF+tRHJVGpsVFsaU5S+77MrExdSLJi5enDQdsr0FGiku9y9GSeZmbF3jOII7dPoJCo1Nm4rXZPY+EVZlbsO3E4YqsFZEZFLqbvKFHJ9zkGpphZsfpM4uAtE+g4UXEDhwSft/8VZWCWnTscrq0CniQqxS4HMyu2nkYct2UCHsyoFMc59DAHMyuWnT8crq0CqXe0e41KMWAUf8rKHJmdPs+crK1nEsdtkUBKvW3LsuGOR0bzsUO6HLPvtQiPQ0XAUoE+9WKPXNva2Uxssceh48/AlrfR5bD0ZOKwbRLwLFHR4YNkxaZTx5pjTaTlxuZBJf/ekqjoi+k96nDoyCHJyjtKPoC7KrXNtttuu00KiagKJBL5b56O6gF4/7371MclUVnINDy4o5OVqX0p5lj8t9q2cLf4c/EV7kVCIK3Upccff/zl+ynVK/e5aYE+TxMVHXgkWRnu+TjDHPnza5ttlNrr8BNPfOCU9UrJfW4RFDhpl4+MZrODux1xvFKFzkcEj8LLr+wmKh7mKW6PRScrT3r5LSP8XtLLuOiOSya3bp0Zu+84Ikc0/yVv7s6OdnV1dY9mBz+7Rqk0sUNmVDIyKOHdAEc+cORnVh6P5lni4bdOSdg49I5V0zknmUw6c1tXvECfw0PeoN7qQ/ODy7v1TWJHdvkuB0qvg2FSzxOVYrIiZWC2jwZK2Fh/x9EzQ05ySN+c5Mx7riNyBNXcPfqchDoo29U92N09OKj/2zWYXf7MBbaHjj49oyKrhbr9BC//w8yKUjpsfOWxmcl81HBDx8qZFcr6cOpRgw7obRLqgoNHuyRmuDcJHzp0vPWDMkxqca8j5Uuiku9y2D6zosdEn3psejJZEjeGhpLTF9PlCKjJe/MxG9XN8zpPyQcO6XVI6Fg+mv3IHvso1e/NR0TuXVJqxyO9ukalsrsiSxfbPLOiZ08ePD03l3TcnsbCf5y53elxRKuhpM9a7HAs9jpG54/Zc6PqtXOUNKU+oa9RqWzz3jy2eWZFj4k+sGIy5zgVcWPImTx6ZyJHpCLHfgePLvY3CpEj3+u4/Z1yIOlIHYwnXzalPiyXsvoWOGTp4i1ftLGYIyXdjTO+NSczKQsdjZI7zoPkKp6cvsG8Sa96y8PFAY5itpLPV7q7Rkd3+IIMddjW60ipTUeOtLnhYzOdEnea174yMB02jjrTmV7a23Cjh5P7ih415RYZgf3ucWdUFqNG/p70QnRdx2qpCLOsrEMSlfY3fGwucgzMPtdnWcdcgsIh566cHqra29Chw7mLHkdkgob+ovvcXpmqLEQOqevIDr7rJKlDt6jXkVLfkT6BDzOxizFF77Ni1QX2emxj58tWzdQJG5NHHxqpZmP9l02rD84vX5qsuMEjPzfbvcsai4Y6UuowXxMVHT7cwPSiPV0OCRuH3nH+zFjN3ob0N+ZOsMcjFkEnoT4tqcrCbGx5xuJWk3Znu758qTWhQycqvs2oFDsdbhlYXyzOn8YHIWFj7VfOl8KNkpHQJXed6csIHI0tTfqNhDpLV47WuOmyDqkIe/iZt8gwqUlf26fvklIPjciiXz5NxRYDh/Q5lsnMig2V57pw4+rHpLdRN25IIDmKIQ6fzmmf3rZXfSq7UDm6NHzoTodbEXbDPhaEjpTq8z1RKSQrw5kX4z8nq8PGU5foeq/Kwo3yPkdyZjsrwqhPbTiUt+1V11SfV1kIIm6vYzR7+57byzBpKN8xsA9Nqf39T1TykUNmVlIxbyx6BvaBFbm5BlFDYoiTu4nJ2MDOco8+KKGOkOHRejfpc7h16LsdJB+50aOPNfFt+oJJVAqRQ2ZW4pys6ItSzlgh9V71Oxu66+FMnr+XiecD36meQEKdJhOyNUc58hFFD3XoijApJo1vRVhKPXuqn6VfC0MccifuMyt6BvbeM5NVqsvLkxT3UXL67ljH0HrNL8KvJdQOo7WHRwtdER1aJHRkz/60HGlMh0n71P7+XaNSGjUKXY7Z5zbFtL3osHHIuck69V5l4cOZO4Wh0ehFkITao97w6EIS4/Y6sqOrpSIslsWkKXVOEDMqxQgiMytT8ZxZceu97pZ6ryayFB1AktOn61FUbpET+IFMqzTIVXT4cHsd3Vm3Iix+q3XIxfTHBpWouF0OPev7jRjOrOh6r5PXTder9yrrb8jQ6AEMjUYuaMgX7lW7SJejmZseJdXLC964d/x6HX3q3f5eo1LsahR/ShnYyJE7xi1Zkb7D2gOO3jpWueJGeawoezS269ooNhu+c0K9s/HwaDGu6NAxmL3nQ1IRFquFfgozKsVWHcRPiRxTn4hXl0OnHFefL72NxlMpC7EjOX1u3KKnLTGlV9W40q0YLUp/SsIil9xnD75BQkd89n5LqQ2BzagUg5LkKpnMh2PUaHTYuLaJeq+FmOHeceYeIFOJZqhJqBuaGh4txA83YRmdv+pm6XLEZYJFZlSCKf0qRg39U1+zEp9kRY+J3tVUvVdZ4JCh0Wi2Gr61tP4DdT+itF9R/77kK7oO/ZiDpJI0FqFDZlRmA7hGpTRqFCJHXJIVXe/1wOlzuUbV5WVBQz9wcl+lwxHVIJRQtzWoHq0MJBJmdFnHDlJMGoOKsKBnVIoBRE+sxCJZ0b2NM7YbqrEs4JJgUfbEyhei2mz43i0Nj+ZjiO6hdHdls6t1RVg64oSp/IyK3xfFFuPF4s/CzErU+SRsHHXu0LQUbtRYGbAsUpQ9SE5/LuJHb/fX33hV9YXAKnsapY915OiSirA1Uc9XCqVfi+05uHsxmFnRvY0Xzl1ZZ32vskhR8cCZe5BMJbqxJ6GeaWV4tBA+dK9DyjoGb9PFpNE9+JS6/v6RHhmqDOEW/ZkVCRs7t1TvVRY5nNwJXN8W3aYjzX5NV0vDowuhw60I677y0giHDp2o+L7qV62g5CYrh0X11NFXzq89bp0s1NNC4UZp5HByJ9PhiOq/vv7eCbW6zkJgpQlKxX091LF8UJYXvCaqFWEp9b4gr1GpjCD6mpX9I1rMIb0NdYBeTbTNsCEhxLkoosce5dbu4XdPqD2brx4tjx3uKOlg9mC94WwEK8J61bOhJSo6iOhkZeShKLaebWQlomtPyE22PAO72OVI5rbz8CTmrcIQ2P4jrQ+PliYso9nv3yxrhEWurCOl3h/sNSpLuxwDI8dG75oVCRvqwd2nm1jfazFOLLmXnL6WTCWM1u7lZ365jeHRYt9DV4RJWcfte6ajFjokUZkdCGVctBhApJZj2dS7I9bl0PVeJ54+2Xq9V1nscOYeW+/lKcx7BS+QUJe7180XQ0GrP/UEi4SOW6UiLEq9Dj2jkglpRqUYOSRb6YlWsqJnYE85s716r9LI4eTOZQWf4Nu61594dnvDoyX5iq4IO+s0+V5pr7+bX+9XKP1aaMOh3NEzK6duiEyfQ/c27r2ivXqv0rAhI6Njh0TmqP06AyP/vml1c7vDoyWhQ/c6Vl8emcihZ1QGfN9GpWE0itTMii7cOK/deq+ywJGcZmg08nFDDqDG/tMtJC1uRVhhw9kojJLK8sShzqgUI4pcsdIzck4k/ucrYeOik1c1u5poWZxY8iA5zRb1MQgcveqIDoZHS3sdsrzglbJGmPnLC6bUB2YHwikZLcaM/E+drBx7mPmRI1/vtXWog8KNxfDhsNN0DMKG3jGliX0SGnc/pNeh1whbfuMFxicsj6sL9UxsqHMqhcChr1kxfmZFehvbHHB0C6uJLgaJavec3BUMjcYidKgdOhoeLQaVYkWYXl7Q5IqwlHrk7aHPqCz0PIyfWZHCjW0uvk92j26/TLQ8fDg5dkWIRdyQ4dFsOxesFAPG4k+3Dl2WF9xDKsL6jbWRRCXc0q+FoCF3TJ9Z0fVeT3Va71UWOJK50+O6r4yxp7w/X0y2kV0utRyL7b+De4WKsGP2lLiR9ufrdvqufcYkKm4AMTpZ0TOwd+3exvpeZaGi/AG7InR6Bhvz973qyhYXAqsTWtyERSrC9pTDM3GvaklUHs3IcoGl/9sP935mYPZ9Ri56rq+BPXy7uTknWd70O3rkjK3b2Zgzny/SkUC/+kLb16ssDSE6cug6dEMrwoxKVHTEMjVZceu9zhubaXlxr/pxxcmdaf4sUkfNyao/3q3xNrJLQ0TNZyR2SEXY6NnPm1eGnlIX6plYgzocOnJMvd+4xiRTKded1/Q2sPWDRemrTu4B5lTiElt6W9snoWbAWHjBzVdkecHPSjGpUYsap9RfGTSjkk+RJIqZlqzoJOW6k2UbWC+TFDd8OLnd9zIuSMalHYdwHJd6NjxaDB6SsOjlBXeRirB+c8Y6jEtU8slKT+bRRwxqTtLbWHvHrj6EDb3T9FfVphBOcD7SF4FedVt2ebHJe/TTrQjrznYdIRVhphSTujMqenMCs25mJSsSNvY6rpXdo0szkUb3x1axK4IvTTicN+1vZRvZpgOLm7AMZt/6IVle0IiKsJS6U2ZUTKg1Lw9cOlmZ+owZMyuSpGx70wkzY45X9V5locRh6a9wWrh/n7qbhxMrxdCiOx16guUje+xjSEXYk+aUfpXGjkxmIHP/swYkK9tKvde1J0zPeT62UQgfyZkTWfrLv0Yc/Du3t09CMUDU+en2OmTXyE9JMWnYQx19at8puZjetERFRxDd5fhA6IFDz8A+tfvcXNKvuOHMnXBo6EcZfOuK8SfKNrIdLQRWO3RIn0OGSUezu+mKsFCvuU+pzw8MG5iouIFD+hxSBib/vw/vpsPGA9vN5fxJUtwuR3L6Mjoc4f0L+/PJn5WL6/25FSrCdjhNOh2hho73mnExfWmSUrwvXY7M28OcWXHrvc4cmva43qtshGNoaCVLf/nTekN7143t75PQONroXodeI+yW40PsdDyu9t1iwKpfxUhR+TPkmRWZSjnqc0M57ws3SiOHM7citBOcD/ZLIN3+PgnNhA5dh54d1MsLhlMRJonK0zKUYOIAhxtDZOxlYOrCcGZW3Hqvu2VZQB+zFB1AkjPsiuBX8w3tfRPqQ50vBFYvguheh64IOzCsirD3mjmjUux6ZIalDOz6MIY5pLdxqC9loqW9DbkvuyKsDeP4QmtTVnxwWp3U4aLF9aKGfs0dJe3OLj9i7xB6HQbPqCxGjlBmViRsrP+qX/VeZaHDmb6CodH4BZNevY1so8bf2etu6JCKsOA3nE2pT8qlbeYmKoVsZWA26DIwmUnZpOu9PFvfqyxUVDwYu5cOR/wCR7+fw6PFgFOYYHnrDbLhbLATLAbPqCx2OXoyT38yyLYlvQ118X053+q9ygKHM3d6/FoNRyQC+7zVh+rRYsgo/sz3Ouav0hvOpoNiLyQqxRZq6s+Ay8D0mOi1l+Q62wa2LDbUfZCcYVeEoE74gD/Hg30SivGh9k+3Imy53nB2Y1C9jj718Z2MT1QkmrkzK18KaGZFryZ64rdyftZ7lcUR2RXhhSB7UwG3HYs/LqGe93l4tBhN9ASLlHXc+kQwo6TSQt5hbulXafdHz6wEUwamt4G91y0T9eVitrKQkX/g5M5jaDSe4aVXneXJPgnF+FD7Z7EO/ZbTJHT4fglLn3qbnok1toSjJHToZOVj/p9dOkm5V+q9PF1NtEqwKH3KmTyDDof//7RhfEJC7SGBw5vlzmsHjcIr+goWqQg7+3jfex0p9XF9FVkU4obOVgZm/S4DC6reqzRsSBHHJSz9FUarDuQzO99GtmHAWPgFtw69Ozu6yxq/ex19EUlUdM9DJytP3+nr/5olSdn5Mo+2gS2LDXUfJGeOI1MJpBGH8CGyT4K/1aMLUcO9406wyBphenlB/+ZmJVHZsiwi/Q03cvhaBqZ7G2tPXufN7tF1I0X5i87kuot8DYchNBc+siigt5ENLFfRsUOHjuWD2Xtu/IHew9aXm8yo6PGNaCQqbp9DrlnxbWZFehvbHvCegOq9SkOHXvpLYha3mAps9GYb2fKeRb1Hbq9Dikn3kA1nfRomjVCispCs+FMGJut7bXP1Y3ob2KCmUhZihzPHrggxjRn6sBJ6n4SghkcL8aQQOq7SG856n7AUZlR0i4zKTc+svNeHk0wXblx8iYQNv9b3WogSS+84c/etJ1Px4R/VkLf0chvZev2M8td0HbpUhB3zKe8rwlLqozKfEqFERUc3fYH9l7xuZm6914pcLoTehsSR5MwdDI0a0sh9+hq7BDk8Wgwg0utwK8LeKZ0Ob3sdUZpRKXaJ3JmVz3saOXS91xnbTUqZaOBJitv9GFt1lKfH49PJz9u2KyD7JASeq+joofMVvTKpu7xgut1vv+TvUtGaUVmMHAOzXiYreirljDPHAqsuX5Kq6KW/JFHiFmcBb7eRLfYpGv50hzpkw9nVn/bu4reU+s6w1EVEZ0alJHJM7etVU9O9jeuucLzePXpJdKjzRHLmLuZU4hw0dJuV4dHBgKpHy6NJsSLstpM8Cx07Hjmil+GI3E0nKzt5lKzoeq+7ncALN0rDiCz9xa4I8Y4bcnR7SwMOJXAsrBHWdaUsL+jBUEef+mJUrlGpDG0ys+JJsqKTlEMvW+f7aqKlYWLp/eTM3QyNxj5wKP/2SSjvYVR75CYsg9nluiIs3SF1Sv21zKdEMFHRUUTPyXaerEhvYy+33mtpYw70mZUs/dXhyWz+n/erg+Ti+mqNOpjn8qFj/p4bpCKst7MLZ3d8LhoX01d2N9zAkZFrVj7a2dIcEjY23RROvVdZWGJo1Pxm78U33P6YUCNHvg59NHtwhxVhKUlUInSNSmX06DhZ0QXeV4dU71UWN6SI42KGRr1omWa/R6/f+yQ07LnoQZZ8RZgUk6bb1Eqpb0RzRqUQQSTF6iRZceu9dg+r3qsscDiT5+/s1QxRmycDfxaAQEKtkf/ph5is6MDiJiyyRphUhLU7TLopojMqxa5HRpKVZW0mK3pM9JRvyWqiIVSXlwUN/SDJrggBNFsjPsL3fRIadjrcyCEVYaM7PNHehrMRnlFZiBwys/JkO+eD3gb2jO383gZ2SYCo/cThdDja+XeM2t+k1Z6hVI9WRhPp9HR1j46efVobW79JohLZCZWFwKGTlb9puc3peq9Drgi3cKM0hsjSX1FrAXzfNgW2vyrc4dFCCNFDHbJr5Oi7pCKstUtYUirKMyqLkaNneKDFZEWHjYvOXRlqvVdp2NDXt11NEUebDTFyfxbIPgmVPYxqj/XKpHrD2b0ldLQwN5tSnzB7o9hibKj/U8+sPNnSNR4SNnbW9V6BbMxWHiBqPHLG1h3CnErkIkBbX1hvIxv0qhzVooZ+Tg/TdklFmLvhbLNHk1IPzUoJVQRrzcsDicysLNvytuaTFQkb649bJytu1GjEYTydnD6TDkezJ27kfy99i4xy1GrLAT+frwjL3vNBqQhLN9XrkETl2Gheo1IeN/TKHD3DPS82WQYmQ6KbvhLGsoD149HYA81Hvsg3HMsPoF/dbMTwaCFE6dAhK5MefMM+zZV1pNT+Ub1GZUnkkGTlHU2djRI2trnpPr0sYP12HPCrzuQJm5r6/vxSLAQC2Ua2+a5Loazjqpv3aaIMPaU+PNIT+TQlH0LcMrAmkhU9A3vX7tNz4azvVScYJbceQKYSi5DQ5EEYMzxa0uuQhX52O0i+f/0LZ1PqsJgkKvnY0TOcaTSzouu9Dl8xF9Tu0XXiROVLDI022d5i8msJ9WljhkeL/ZLCyqS3fkEiR7qOc58kKhG+RqVqstJX53iV7m2cst3YdFjLAlYGi9LHelcEGbLlZo+AQcOjC6EjvzLp2U9IMWnNfwiZUdGJSkxSFQkjugysTrKiCzeO+txYbsikqZSF2OHkHmQutua5GsMX+oPcRrYYGBr+1EMd3V2FirDqsSM+MyrFrocOgpnv1JhZ0UnKRedJmWhIixAvRIiqd153Jh9jV4QYhod6h3TNw/p6EeNu+Yqwbl0R1l8tdMQsUdHRQ5eBPddXdU7Trffa1aAy0Yr4kdzKrgj1GlksXwtln4TGgcqtQx/Mdh0hywuml8DnZ1QiuupXsY9R8VMuuhmY+mKVwCFhY63Ue40ZmaToEOKMoM6bHgAAG/NJREFUrbqXTGXJSRrrJxLqCeOGRwtRxZ2bHZx/+EN618jyf4S4zajkQ4ikKpnMi5WRQ5KU/LKAZhVulPY5nNwK4kb5GWrBo423mlM9WtER0b0OqQh7WFeEle1VXSj9qvhfduQfusnKjmWRQ3obm246wazq8tKY4d53pq8lcFgQKsoOcaP6oEnVo0tCh1z9Npj9/h4SOhaHOvrUZ6YGoro8cb3wJteslCUregb2wftmQtkGdkl4qPmEM3Y0uyKUNSobHvSqC5YbOTyaDyH64je99VtpRVhKbTg1HteoVAYRN1n5cLHL4S4LeHpOykRrtlkjXkhuZVcEG0LFkmO8LaytmSq6FzUeunOzsrygrghzex0p9f44XExfGTX0Y0lWRo7c5EYO3ds4/FuTuTA2nW8xHiUPJ1NZ0qpi/0Q6pG1ka4SJKk/rXofeq/oWHToS0qrOmY1lolKIHFOfkEPM13tNGlrvVRZYnLndiRuxDxPVDnCf22VipUqDNecpna/oirDVlyv1uLr+0UwkN3ys1sWofE5GbnpGvqE2ybKA5600srq8LGjoB8lpdkWo1qxi/1xafdnsXEUHMAkdsjJpdvS2NUq9O66JSqHLMXLkjuqiuw2u9yqLHc7YrhfR44h9lKh6gHtLuzS7y5EPHXp5we4b/2ZKjyFW/q86No/1NSv/6YBVM+bWe5XFjSGGRqu2KTueDHMb2eYTIp2wdA2OvvSvEyPxjRs6Jg5sGTJtoZ7yYFH+6AE6HHaEicqjzO+T0HwDDu83pWMkvY7NOnTEpoex5EAkckz8sbxpGvzImbyv8nzisTUCYW8j23wo0qOkg4ObX/rJcHxDh2RiE78Ye33odYPjxcJXS858hQ6HNYGi4kDToW8j23zkyP/m5s2v/CzG4xxS0PHzaEQOWfrrOgJHRXuy5qFsIys7Mxk/PFoWXSR0/CrGoWPiDelxvG5+nyM5w64I1sSJKgeaPltmZCN2Gx987ffxDR0RSVZeH7uLDkeVBmXJU2n1KWMvka0TzsYHf/TD+E6w/DQCyYos/dXSDnSWtCeLDnO/g43YRrZOlKj60vjoH14eyUwsmZmIwRMTv9bDo4YnK8mtX6XDYVGYWHKoCXWl+dWj1UNH9nc/jOcESwSSFWdoJUt/LWlMNj2RUJebuhBY1XBR8uTm8fnfxLSs48+mJyvJ6e3ocNgUJ5Yca6/aeFb0hkcL4WPz+C9jGTrMT1acuacIHEsak1VPpI3cJ6GkY1H37ubxl34Sw16H6cmKM3a+LG3IzW6BiA6PFnsdsawIy5g9s6J3RZDlhrjZLNCrDF8IrG6XQ150K8JiNkzqloEZO7MiQ6OnEDhsDhr62BPqeIMXLW4UNdzXpSIsbsWkOlkxtn40Ob2CDWNtjxuyhvj2O0SxCKwspOiKsHgVk2YMnllxclfT4bA+cMh2aSbvk1AWH+o8kIqwWBWTmjyzMrZubXFBdpqPzQLXmLxPQp1gUf7SeLwqwib+ydRkJbn1MjocNseLxWM3dBvZ8sDQ8FGhIiw2dejGzqw4DzDEsdh47L2XUF+I+vBoIajEqiJsYouZV6w4OXZFsDdYlB55r9pnt8gPjy6EjvgsL5hPVoy72o2h0dLGY/X9fvVMTLocEj6kmPRncVle0MxkZdULDI1aHS8WDr5X7d3lLunZcBghEr8QmzXCjJxZSW69gqHRhaZj/R29T0K0lhCsF8PiskaYmTMrdzE0an28KAD0G7+NbL0wUe01CR2xqAgzLllx5k4gUSFuFARkeNT4bWSrhYd6z42PxmB5QfNmVpIzx5GpEDiKAgl1Y6xyFTeijGejX0xq3syKDI1yYWyx3Vj/U4ZH9WZp9f4PHr3XRjePZ3/8ctSvmzUrWUluPY+4YX24KAVIRHCfhCZiWeTXCJvY8s9GLV08eS1Do6Xtxvb7+W1kY9bl0IFFyjqiveHsy3LNimzRtLD1Yqh3nMn3sPSX7bGi7Ph71VuuiuQ+CY17HZs3v/SnKFeETfybOUsXJ2fYFaGs3fAgHdl9EpoJHVHecHZiSpIVU7ocQ+yKQKwoE4jiNrKNQ0bxN8YHX43uGmF6ZsWMZEVvGMuUSlm74YHqj+fwaCF2bN782ptRXSPMmGTFmbyYoVFCRbnARnefhOL/omP4M7oVYW6yYsLSxWPrNpWfNDxCQKn9PhLT4dFiFIxsRZghyUpy+m7KzYkUlQLR3Ua2GBga/oxsRZgpycopZCqVzYbHCfV8fFblqBlDornhrBHJit4VgaFRAkWlQH6fhJotLi4vRLMizL1mJdTar6EhZ+4mOhyVrYbHSvZJuCEuKwjWjXISOiJYEWZAGdiqtTQTBKoJXHNPzIdHCwFF1gj7WcTmZidmfx7yNSvJGYZGqzUanhOBiG8jW7ejUfbi5s1Rqwib+G3I9aPOGLsiECSqCqTVpy0YHl3odUSsImziX0K9ZkXvipCqetrwpO0CshDYrbKejy032XD2zZHMcFRuIScrTu4A5lRsjxC1jj8e28g2H/jyFWFR2fpt4reyKWR4MyurdqbHUavh8PylD8don4QmIkik1ggLswwsOXMecYP4UFtgdfzWHq0fPyJUETYxG95qYM4kuyLUbjXWvxKfbWTrR4vSVyNUERbezIqTu4QOh/XhoTZAr9pvt9GuGK4gWBopltyPTkVYaMmKkzuZodHa7YZX+tWXragerQgeUhH2pyhUhIU4s3IRPQ7CQ20BvU+CXcOjhRDiFpOav5WCO7MS/NRKcvrM2ucMryCgBeK1jWxF16LOQ1kj7Pfm9zrCKQNz5lj6i+hQV6BfHWRP9WhFGNEbzhpfETYSwjUrzhy7ItRtNbyoZJ+EY+wbHi1GkAisETbxR33NSrDZijN9B0OjBIf6AhvVETYOjy6GDtN3jQwhWXHGjiJw1G82vNqr1si19bbNyBbjhvwcn//xxEjG3Dr0icCTleT0t2gXCDQU6I31PgklIaL6Xdmr+pe/mTB4giWfrAR40QpLfzVsM/yCUv1qT2uHRwuhRCrCfjJs7nWzAScrzuTR62kYCDQSkOHRuO+TUL2rUfqs3nDW2LnZfLISWJfDmT6X4q9GrYbXlUqoXWy70q00ZhR7HYOvGru8YLAzK87YGQyNEhiaEbB8eLQQOsbNrQgLMlnRuyJwQ6CxgOyTcJZFC4FV6W0Un9IVYWYmLAHOrDjTx7ErQuNWw28oJdvIzi+3eUa2GDhkbnbUzOUF3WQlmO1kx3bdmUaBQDMCveoHB9uxT8JihKh5bzz7u5cNrEMPLFlxpln6q5lGw++IQMKefRJqBozFF2R5QQPLOjJ/DmbRc2fucDIVokJzAu42soMWV48uRg19z8iKsICSlWTu9G2bO2n4LQRkn4QdGB4tiR5uRZhhxaQ6WfH/YjcndwcdDiJCswIb1QdtvtKtJGQU7+qKsGGzQkcwMyurDm32pOH3EJDhUUu2kS0GhsY/3eUFTQodkqz4vp0sS38RDFoSYHi0SiSRDWeNWiMsgGTFyT1IptJSy7H8l3vVabZf6VYlcgwaVhGW+bnPMytO7r69uE7F8ljQ4uHrfRKqtR3Ln9MVYcYUk+ZnVny82s3JXUaHo8WGY/mvp9UzDI9WDZLjo+ZUhPmfrBxCh8PySNDi4cs+Ccut3CeharAof9ItJh02Yo2wEV/LwBgabbHV8OtawLptZMvDQ51H5lSETbzxuo9XrCRz15KpEAxaE7BxG9k6saLiJV0RZkQd+sQvdBmYP4uey64Ih5KptNZs+G2l3nI7w6MV8aLkoTEVYb4lK687uXPpcBAJWhVIqxuZkS2JFEvu6oqw8ItJ88mKL10OvStCqtXTht+3XaBXHdjF8OiScFH6hBEVYTpZ8WWcI5lbsY3tjYDjb0vgFslVuEa2NFRU3peKsNDLOvy6wD45fTWZSlvtxvI/km1kWQisMlIseRz+GmFusuJ9ruJMnr/W8hbA4bcpcI3F28guiRA1nxgf/UO4e1XnkxWvQ4eTO4/FzdtsOJb/Wb/eJ4FUpWbEWHghXxE2HN7Nj5kVZ+4UAoflEaDtwz/J7m1kFyJDwzuya+TL4V1yn09WvO1yOLnTNzGn0nbLsf0Pb2EhsIZBw/0FKSYNsSLMh5mV5Ay7Itje+ts+/rT6FMOjzQUOWZk01DXCfurxnKwztu4FOhxttxzr//ACtpFtNnDo0BFaRdjEr6WWw8vKcyd3JiMc1jf/tgHcbWQZHm06dkhF2K/CWa1j4p+87XI4ucMJHG23G/5QPT/aTQ1Y04FD9zpefTOc/Zs8TVacuUvWk6nQ/tsV6FUbd+BKtxbihvzq+GAou0ZObNGF517NrCSn2RWh3UbD34lAWu1BKUdrgUNvOPsH2as66IV+PE1WxlZdRIeDCNCJwKVvZRvZViPHYDgVYd4lK05uO+JGJ62Gv02rd0kpB+OjrcaO8V/+OOiKMHdmxZtkJTnzIEOjNP5OBBLqeFblaDVq6N+XirB/DXiNMJ2seDIl68ydsJYeRyfNhr/tVeyT0E7ccEPHSz8JeKEfj5KV5PTJahPnPgKdCMg2slI92mbbsfzPgq4I82xmxWHpr07aDH/rChz4MAuBtRsBJXT8ajgT2GWz3iQrTm4Fpz4CnQusHu3qps/RZuzQywsGVxE28W8eFJAmZ9gVofNWY/07uNvIMq/SZtyQP9PLCwYVOiamOi8Dk10RdmZo1Pp27wEAw6PtRw33L8cHA1sjzINkJTl9BWuNetBsrH+LjerLVI92Gjqyf3g5oF5H58kKQ6PWt3lPAGSfBLaR7TBwSMIyH0xF2MTUP3d2zYoztzu7InjScKx/k151NksIdhw5gqoI6zRZSW69iUzF+jbvCUBavZOFwDoOHLqYNJCKsM5mVpzJo7m+zZNmw5sopfdJ8KDlWP8Wsryg/yuTdpasOLnP0eGgzXsj0K+OYHjUm6i3efwV39cIyycrbS7NoXdFYMNYb9qN9e/Sq9YMUj3qTeTQa4T93u/lBdufWZGh0W2tP98B8E5gB5YQ9Chw5CvCfA0dHSQrya0HkKl412xsf6eEOii7nLJzD0PHj3zdNXLit/oC+zaSFWds10PIVGxv7l4e/wVXyQUrnjUc3kiWF/SzIqzdmRW99BdVHF42HMvfK+1uI0vk8DDiuRVhfq1M2m6y4uQeIHBY3tY9PvzLZXSUwOFh4JCyjvnf+LZG2MRv9QZNrSYrztx97IrgccOx/e023irDo9w8FdDFpH6tEdZWspKc+SpDo7a3dG+Pv59tZD2NGYU386+YdGK29WtWnLFVLP3lbbux/t0S6lK2kfUldPi1RlgbZWB66S+GRq1v694CJPQ+CSQrPsQOvzacbT1ZSU4/ReDwttnwbkodL9erEDl8iByDmwdf86GYtOWZFWeSpb9o6N4LpNlG1o+o4b6nbDjrfUWYWwbWwg5Nya2XMTTqfbux/R1lG1n2SfAtcsiGs96HjlaTlZVnUDVqezP3/vgT6sB72EbWv8ih1wj74YinOylMjPy8hdXAnLlLvD9reEcEetVqhkd9DBxuRZi3G866ZWDNJit6VwTmVGjnngsk1GnsP+1n4FjYcHbCs37HxL80vc8KQ6Oetxje0BWQbWRvZyEwfyOHrNbh6RphLSQryRl2RaCl+yKQZhtZn8OGfntZI+xn3q3WMfFHuWZlqLkbS3/50mx4U6XWsI1sEKFDikk9Cx3NJivO5O6c4Qj4I5BQZzPKEUDk8LIirNlkhV0R/GkzvKsIuMOjXFwfROiQijCPNpzNz6w0SlacsXXXMadCK/dLQPZJoOo8iMAhK5N6VRHWVLKSnD6PqlG/Wg3vK9vIUj0aTNyQTxnP/s6LirDmkpWxE6kapYH7J3AS28gGFjj0hrO/8aAibOKPY41mVpzJx9gVwb9WwzsrJfskkKwEFju8WV6wcbKS3HocIxw0b/8E3G1kubg+sMCR33C245VJMz+vX0AquyIcReDwr9nwzgm2kQ0waOQ/SleEDWc6qkKf+OPreu3imlMryentGBqldfspkFZXcqVb0LFj82YpJu3owtkGyYozeRdDo342G95bqZO62UY26MghFWGvdlZMOvLnOhfYO2PvYVcE2rbfAnp4lPHRoGPH+OBrb3ZQhy7XrNS+aGWlDI0yqeJ3u7H8/dNqz3mZkg263fB5HVaETfyi5vio7IpwBkOjlrdr3w8/oX4g+yTQjsMQ6KgibKTmzAq7IvjeavgApfrdbWTDaDd8phSTtl0RVntmxcmxKwItOwCB4xnkCCuGjXZQEVZrZsUZO/pQ5lQCaDfWf0RiN8lVyFZCCh6ya+S/tlcRVmNmJbn1boZGrW/UAQAk2EY2pJhR+FgJHX9qZ6/qiTd0GdjSKrCVpzA0GkC7sf4jEmrvg7lgJdTY0WZFWNWZFWdud+KG9Y06EICN6rNSPUquEmbsaLMi7M9L52ST0zcROAJpN3yIeoJBjjCjhvvZ7VSE5ZOVsmxFlv56gaFR2nQQAr1qn9sp5Qg9cgy2seHs0mQluZVdEYJoNHyGCPSrG1gILPzAodcI+0OLe1VnliYrJ5Kp0KqDEUioNWwja0LgGJXQ8eOW1gibeEOuWSnZFFJvGJsK5qzhUxBI630SGB01IXbo5QVbKeuoSFaSMwyN0p4DE0ioJ9hgxYiwIV9Cdo1spSKsLFlxhlYdQqYSWLux/oMYHjUlarjfQ0JH8xVhE7/WqUphZiU58znihvXNOUCAfvUMw6MGBY9WKsJ0srJQQDp2F4EjwHZj/UclFPskGBQ35KuMb3612b2qMz8tloE5k+9hZNT6xhwoQELdQtm5aaGjyTXCFpOV5Ay7IgTabPiwhHonw6NmBQ4ZJh18ramyjnyy8vqQDI2yKwJtOWCBa66ietS0yNF0RVg+WUnOsCtCwK2Gj+tXNzI8alzgcDecfXkkM1F/G5Z8sjLkTF7M0ChNOViBhHq+i30SDIwcUhHWuJjULQMbGjt/fbAnDZ+GgOrV28iyEJiBoUMW+mlYTKpnVpJb76DDQUsOWiChDmJ41MCwob+SXiOsfh36xK8dZ2jlGawZGHSz4fMS6lJZCMzQlmP912pYETbxi/84vYIOB+04eAG9jexyIoepMWqzVITV2as6k/mf01cTOIJvNnxiQh0/yvCoqXFDvpeEjpq7RmYyE2+sW89JjEAYAtv8nQQO+hzmxg6pCHtzJFNtajYzvNOW/8pKHGG0Gj4zrb75S7aRNTds6G82PvqjasWkmUzP8P/5PJkKjTgMgYT6i78bZblzoyOHrBE2+rula4Rlhge2/HfiRhiths9UKq3+7zxVYEYHDrfXMV8ZOiRuzP57zmAEwhLo1UsIUgRmeuiorAjLZDLD/0iiElar4XOlenSNHuRgfDQCoeMnCxVhEjYG3vjPqo8TGIGwBKR8dF7mVYgcpkcOKSZ95U+ZET3BouPGlo+FdcbwuQhogbS6UVeBETmMjxyyRtgrP9N7VRcGOFj6ixYcokCvSrs7JRA5zI8cuiLs9z09wwOZv2dp8xDbDB+tBRJq+9X0OSIQNdyvON792pv/mPn7/0HpF603bIG02rha785ECWkEosdo93jXj3rY9DHsRsPni0Babf+u+UHqOSIQNyS4Lx/8y3OYUKHhmiDQq9Q3s6N6iJSRDpOjh57+Wj7/3Y+qx004a/gOCIjA87vNDxI6zA4b3YNdm1/5nh6W4oaAGQL9ap8jHs52M9RhaujQvY2ur8//v28r+htmNBm+hSuQVmrvXbKFhIWUxaj4IUsfyL/I8s2jr/yvTyrmU2ixRgn0Sgd4zbv+2y/lf2xywaz+H5xRjcfaL6NHnvQ/yddfeul7/47uhlFthi/jCvTKIOne3/zufHZ+tGu5Gzx0AOEWssDo8uVfH53Pvvq3EjYSlIvSWE0UkF7Hjgf+7X/4/isvZTdzM0Rg/pVXv/u9JzbIvDmjoiY2Gr6TCCQ2aobrv33Qf/mHr33tL7mFLfC1r/3D//7mt9+3Xv/TcDWsPje5GSvQm9Zf7bANG/6CW9gCGzZsWK//Najc0ArcTBd4fCO9YmP+jdKPEzaM+cfgiyCAAAIIIIAAAggggAACCCCAAAIIIIAAAggggAACCCCAAAIIIIAAAggggAACCCCAAAIIIIAAAggggAACCCCAAAIIIIAAAggggAACCCCAAAIIIIAAAggggAACCCCAAAIIIIAAAggggAACCCCAAAIIIIAAAggggAACCCCAAAIIIIAAAggggAACCCCAAAIIIIAAAggggAACCCCAAAIIIIAAAggggAACCCCAAAIIIIAAAggggAACCCCAAAIIIIAAAggggAACCCCAAAIIIIAAAggggAACCCCAAAIIIIAAAggggAACCCCAAAIIIIAAAggggAACCCCAAAIIIIAAAggggAACCCCAAAIIIIAAAggggAACCCCAAAIIIIAAAggggAACCCCAAAIIIIAAAggggAACCCCAAAIIIIAAAggggAACCCCAAAIIIIAAAggggAACCCCAAAIIIIAAAggggAACCCCAAAIIIIAAAggggAACCCCAAAIIIIAAAggggAACCCCAAAIIIIAAAggggAACCCCAAAIIIIAAAggggAACCCCAAAIIIIAAAggggAACCCCAAAIIIIAAAggggAACCCCAAAIIIIAAAggggAACCCCAAAIIIIAAAggggAACCCCAAAIIIIAAAggggAACCCCAAAIIIIAAAggggAACCCCAAAIIIIAAAggggAACCCCAAAIIIIAAAggggAACCCCAAAIIIIAAAggggAACCCCAAAIIIIAAAggggAACCCCAAAIIIIAAAggggAACCCCAAAIIIIAAAggggAACCCCAAAIIIIAAAggggAACCCCAAAIIIIAAAggggAACCCCAAAIIIIAAAggggAACCCCAAAIIIIAAAggggAACCCCAAAIIIIAAAggggAACCCCAAAIIIIAAAggggAACCCCAAAIIIIAAAggggAACCCCAAAIIIIAAAggggAACCCCAAAIIIIAAAggggAACCCCAAAIIIIAAAggggAACCCCAAAIIIIAAAggggAACCCCAAAIIIIAAAggggAACCCCAAAIIIIAAAggggAACCCCAAAIIIIAAAggggAACCCCAAAIIIIAAAggggAACCCCAAAIIIIAAAggggAACCCCAAAIIIIAAAggggAACCCCAAAIIIIAAAggggAACCCCAAAIIIIAAAggggAACCCCAAAIIIIAAAggggAACCCCAAAIIIIAAAggggAACCCCAAAIIIIAAAggggAACCCCAAAIIIIAAAggggAACCCCAAAIIIIAAAggggAACCCCAAAIIIIAAAggggAACCCCAAAIIIIAAAggggAACCCCAAAIIIIAAAggggAACCCCAAAIIIIAAAggggAACCCCAAAIIIIAAAggggAACCCCAAAIIIIAAAggggAACCCCAAAIIIIAAAggggAACCCCAAAIIIIAAAggggAACCCCAAAIIIIAAAggggAACCCCAAAIIIIAAAggggAACCCCAAAIIIIAAAggggAACCCCAAAIIIIAAAgEL/H/r0Pbx7zoGZwAAAABJRU5ErkJggg==;clipPath=inset(26.74% 19% 26.74% 19.33%);" vertex="1" parent="1">
          <mxGeometry x="290" y="210.57999999999998" width="62.6" height="33.84" as="geometry" />
        </mxCell>
      </root>
    </mxGraphModel>
  </diagram>
</mxfile>
